<svg width="146" height="104" viewBox="0 0 146 104" fill="none" xmlns="http://www.w3.org/2000/svg">
<path d="M137.106 70.932C137.014 68.864 136.715 66.0378 136.21 62.4533C135.75 58.8228 135.084 54.5719 134.211 49.7007C133.751 47.1731 133.246 44.4158 132.694 41.4287C132.143 38.4416 131.614 35.4316 131.109 32.3985C130.603 29.3655 130.144 26.3784 129.73 23.4372C129.362 20.4961 129.11 17.7847 128.972 15.3031C128.972 15.0274 129.087 14.361 129.316 13.3041C129.592 12.2471 129.891 11.1442 130.213 9.99529C130.58 8.84641 131.155 7.35286 131.936 5.51465C132.396 7.21499 132.74 9.30596 132.97 11.7875C133.567 17.8536 134.257 23.4602 135.038 28.6072C135.819 33.7082 136.531 38.3497 137.175 42.5316C137.451 44.3239 137.726 46.277 138.002 48.3909C138.324 50.5049 138.599 52.6418 138.829 54.8017C139.059 56.9157 139.243 58.9607 139.381 60.9367C139.565 62.9128 139.656 64.6821 139.656 66.2446C139.656 66.9339 139.588 67.7611 139.45 68.7262C139.358 69.6453 139.22 70.5644 139.036 71.4835C138.898 72.3566 138.691 73.1149 138.416 73.7583C138.186 74.3557 137.933 74.6544 137.657 74.6544C137.382 74.6544 137.221 74.3557 137.175 73.7583C137.129 73.1149 137.106 72.4945 137.106 71.8971V70.932Z" fill="#3498DB"/>
<path d="M138.001 78.3767C138.644 78.3767 139.15 78.6984 139.517 79.3418C139.885 79.9851 140.069 80.6285 140.069 81.2719C140.069 82.237 139.862 83.0871 139.448 83.8224C139.035 84.5577 138.667 84.9253 138.345 84.9253C137.978 84.9253 137.633 84.6726 137.312 84.1671C137.174 83.8454 136.921 83.6386 136.553 83.5467C136.186 83.4548 135.818 83.4088 135.45 83.4088C135.083 83.4088 134.6 83.5237 134.003 83.7535C133.451 84.0292 132.9 84.3279 132.348 84.6496C131.843 85.0173 131.406 85.4079 131.039 85.8215C130.671 86.2351 130.487 86.6027 130.487 86.9244C130.487 87.4299 130.855 87.8435 131.59 88.1652C132.325 88.4869 133.153 88.7396 134.072 88.9235C135.037 89.1073 135.933 89.2451 136.76 89.337C137.633 89.429 138.208 89.4749 138.483 89.4749C140 88.6937 141.149 88.0733 141.93 87.6137C142.757 87.1542 143.952 86.5338 145.515 85.7525C145.836 85.7525 145.997 85.9823 145.997 86.4419C145.17 88.6018 144.481 90.1642 143.929 91.1293C142.964 91.8186 142.16 92.3241 141.516 92.6458C140.873 93.0135 140.161 93.4041 139.379 93.8177C138.598 94.2313 137.817 94.6449 137.036 95.0585C136.117 95.564 135.175 96.0925 134.21 96.6439C133.244 97.1954 132.348 97.7009 131.521 98.1605C130.694 98.666 129.637 99.2404 128.35 99.8838C128.12 99.8838 128.006 99.654 128.006 99.1945C128.006 98.7349 128.212 98.2524 128.626 97.7469C129.04 97.2873 129.499 96.8278 130.005 96.3682C130.51 95.9087 131.176 95.2653 132.004 94.4381C130.947 93.9785 130.097 93.5649 129.453 93.1973C128.856 92.8297 128.281 92.3701 127.73 91.8186C127.224 91.2672 126.972 90.6468 126.972 89.9574C126.972 88.9464 127.339 87.7746 128.074 86.4419C128.81 85.1092 129.729 83.8454 130.832 82.6506C131.935 81.4557 133.13 80.4447 134.416 79.6175C135.703 78.7903 136.898 78.3767 138.001 78.3767Z" fill="#3498DB"/>
<path d="M94.9193 58.9377C94.0921 58.616 93.0581 58.2253 91.8173 57.7658C90.6225 57.2603 89.3357 56.8007 87.9571 56.3871C86.6243 55.9276 85.2916 55.5599 83.9589 55.2842C82.6262 54.9625 81.4544 54.8017 80.4434 54.8017C78.6971 54.8017 77.1805 54.8476 75.8938 54.9395C74.653 55.0315 73.596 55.1463 72.7229 55.2842C71.8497 55.4221 71.1604 55.537 70.6549 55.6289C70.1494 55.7208 69.7587 55.7667 69.483 55.7667C69.1613 55.7667 68.9316 55.6059 68.7937 55.2842C69.1613 54.2732 69.46 53.492 69.6898 52.9405C69.9655 52.389 70.2413 51.8146 70.517 51.2172C70.7927 50.6197 71.0455 50.1142 71.2753 49.7006C71.505 49.287 71.9876 48.9194 72.7229 48.5977C74.607 47.7246 76.6291 46.8744 78.789 46.0472C80.9948 45.174 83.1088 44.2779 85.1308 43.3588C87.1988 42.4397 89.083 41.4517 90.7833 40.3947C92.5296 39.3377 93.9083 38.1429 94.9193 36.8102C96.206 35.1098 97.4009 33.4325 98.5038 31.7781C99.6527 30.0777 100.71 28.5612 101.675 27.2285C102.64 25.8498 103.513 24.7469 104.294 23.9197C105.075 23.0466 105.742 22.61 106.293 22.61C106.707 22.61 107.097 22.8857 107.465 23.4372C107.833 23.9886 108.154 24.678 108.43 25.5052C108.706 26.2864 108.913 27.0906 109.051 27.9178C109.234 28.745 109.326 29.4344 109.326 29.9858C109.326 30.5373 109.257 31.2496 109.119 32.1227C109.028 32.9959 108.89 33.869 108.706 34.7422C108.522 35.6153 108.315 36.3736 108.085 37.017C107.856 37.6144 107.626 37.9131 107.396 37.9131C107.12 37.9131 106.868 37.4995 106.638 36.6723C106.408 35.8451 106.155 34.926 105.88 33.915C105.604 32.904 105.282 31.9849 104.915 31.1577C104.547 30.3305 104.087 29.9169 103.536 29.9169C103.214 29.9169 102.617 30.4683 101.744 31.5713C100.87 32.6742 99.9054 33.9609 98.8485 35.4315C97.8374 36.8561 96.8264 38.3037 95.8154 39.7743C94.8503 41.1989 94.0691 42.2559 93.4717 42.9452C92.7364 43.7724 91.6565 44.6226 90.2318 45.4957C88.8532 46.3689 87.2447 47.2191 85.4065 48.0462C86.4175 48.322 87.4745 48.6666 88.5774 49.0802C89.6804 49.4479 90.7603 49.8385 91.8173 50.2521C92.9202 50.6197 93.9772 51.0104 94.9882 51.424C95.9992 51.7916 96.9183 52.1133 97.7455 52.389C99.2161 52.8945 100.848 53.3541 102.64 53.7677C104.478 54.1353 106.362 54.457 108.292 54.7327C110.222 55.0085 112.13 55.2383 114.014 55.4221C115.944 55.5599 117.736 55.6289 119.39 55.6289L120.08 55.8357C119.758 56.7088 119.482 57.3982 119.253 57.9037C119.023 58.4092 118.77 58.9377 118.494 59.4891C118.265 60.0406 118.058 60.5461 117.874 61.0056C117.644 61.5112 117.46 61.8099 117.322 61.9018C117.231 61.9937 117.047 62.0396 116.771 62.0396C115.071 61.9477 113.761 61.8788 112.842 61.8328C111.923 61.7409 111.004 61.672 110.085 61.626C109.211 61.5801 108.568 61.5571 108.154 61.5571C106.73 61.5571 105.029 61.7869 103.053 62.2464C101.123 62.706 99.1242 63.5562 97.0562 64.797C91.4956 68.2436 86.1188 70.7252 80.9259 72.2417C75.7329 73.7123 70.6319 74.4476 65.6228 74.4476C64.6118 74.4476 63.8075 74.1489 63.2101 73.5514C62.5667 72.9081 62.2451 72.0809 62.2451 71.0699C62.2451 69.7372 62.8195 68.6802 63.9684 67.8989C65.1173 67.0717 66.45 66.6352 67.9665 66.5892C71.4131 66.4973 74.7679 66.1526 78.0307 65.5552C81.3395 64.9578 84.3725 64.0157 87.1299 62.729C88.2328 62.2235 89.5195 61.626 90.9901 60.9367C92.4607 60.2014 93.7704 59.5351 94.9193 58.9377ZM103.536 1.79224L110.498 6.54861L106.983 13.7866L100.089 9.0302L103.536 1.79224ZM85.8891 81.6166L92.8513 86.373L89.3357 93.6109L82.4424 88.8546L85.8891 81.6166Z" fill="#3498DB"/>
<path d="M65.5549 74.4476C65.1873 74.4476 64.6818 74.4246 64.0384 74.3787C63.441 74.3327 62.7976 74.2178 62.1083 74.034C61.4189 73.8502 60.7296 73.6204 60.0403 73.3447C59.3509 73.023 58.7535 72.6094 58.248 72.1039C57.3289 71.1848 56.5936 70.0589 56.0422 68.7262C55.4907 67.3475 55.0541 65.9229 54.7324 64.4523C54.5027 63.3953 54.3188 62.1086 54.181 60.5921C54.0891 59.0755 53.9971 57.7199 53.9052 56.525C53.7674 54.0434 53.5836 51.378 53.3538 48.5288C53.124 45.6336 52.8712 42.6695 52.5955 39.6365C52.3198 36.5574 52.0211 33.4325 51.6994 30.2616C51.3777 27.0907 51.056 23.9657 50.7343 20.8867C50.5505 19.4161 50.3667 17.9915 50.1829 16.6128C49.999 15.1882 49.7922 13.7636 49.5625 12.339C49.4706 11.7875 49.3097 11.0752 49.0799 10.2021C48.8961 9.32893 48.6893 8.52471 48.4595 7.78942C48.5514 7.00818 48.6893 6.18099 48.8731 5.30784C49.1029 4.38873 49.3327 3.53856 49.5625 2.75732C49.7922 1.97608 50.1829 1.05697 50.7343 0C51.056 0.551464 51.3088 1.07995 51.4926 1.58546C51.6764 2.09097 51.8372 2.66541 51.9751 3.30878C52.3428 5.2389 52.6185 7.14605 52.8023 9.03022C53.0321 10.9144 53.2389 12.9594 53.4227 15.1653C53.6525 18.2443 53.9282 21.6449 54.2499 25.3673C54.5716 29.0438 54.9163 32.7432 55.2839 36.4655C55.6515 40.1879 56.0192 43.7954 56.3868 47.288C56.7545 50.7347 57.0991 53.7677 57.4208 56.3872C57.5127 57.0305 57.6506 57.7428 57.8344 58.5241C58.0182 59.3053 58.225 60.0866 58.4548 60.8678C58.7305 61.6031 59.0293 62.2924 59.3509 62.9358C59.7186 63.5792 60.1092 64.1077 60.5228 64.5212C61.0283 65.0268 61.6257 65.4174 62.3151 65.6931C63.0503 65.9688 63.7627 66.1756 64.452 66.3135C65.1873 66.4514 65.8536 66.5433 66.451 66.5892C67.0944 66.5892 67.5769 66.5892 67.8986 66.5892L65.5549 74.4476Z" fill="#3498DB"/>
<path d="M34.465 51.5618C36.2113 53.5379 37.521 55.3302 38.3942 56.9386C39.2673 58.5011 40.0486 60.2934 40.7379 62.3154C41.4272 64.2915 41.7719 66.2675 41.7719 68.2436V71.4835C41.7719 72.0349 41.7489 72.4485 41.703 72.7243C41.6111 76.3547 41.1285 79.6865 40.2554 82.7195C39.4282 85.7526 38.2104 88.6707 36.6019 91.474C35.7747 92.9446 34.7178 94.3922 33.431 95.8168C32.1902 97.2414 30.8575 98.5282 29.4329 99.677C28.0542 100.826 26.6296 101.745 25.1591 102.434C23.7345 103.17 22.4247 103.537 21.2299 103.537C18.7943 103.124 16.7952 102.756 15.2327 102.434C13.6702 102.113 11.9929 101.745 10.2006 101.331C8.40836 100.964 6.75396 100.573 5.23744 100.16C3.72091 99.7919 1.97461 99.1945 -0.00146484 98.3673L1.03253 98.0916C3.33029 98.0916 5.53615 98.0456 7.65009 97.9537C9.80999 97.8618 11.878 97.632 13.8541 97.2644C15.8761 96.9427 17.8292 96.4602 19.7134 95.8168C21.5975 95.1734 23.4128 94.3003 25.1591 93.1973C29.4329 90.5319 32.6728 87.6368 34.8786 84.5118C37.0845 81.3868 38.5091 78.147 39.1525 74.7922C38.5091 72.5404 37.7738 70.5873 36.9466 68.9329C36.1194 67.2326 35.3382 65.808 34.6029 64.6591C33.8676 63.5102 32.9944 62.2694 31.9834 60.9367C31.9834 60.615 32.0753 59.9487 32.2592 58.9377C32.443 57.9267 32.6728 56.8697 32.9485 55.7668C33.2242 54.6638 33.7297 53.2622 34.465 51.5618ZM26.8824 31.5713L33.8446 36.3277L30.329 43.5656L23.4357 38.8092L26.8824 31.5713Z" fill="#3498DB"/>
</svg>
