<svg width="35" height="35" viewBox="0 0 35 35" fill="none" xmlns="http://www.w3.org/2000/svg">
<path fill-rule="evenodd" clip-rule="evenodd" d="M4.90144 30.0996C7.24935 32.4475 10.675 32.4476 17.5 32.4476C24.325 32.4476 27.7491 32.4475 30.0985 30.101C32.4479 27.7531 32.4479 24.3261 32.4479 17.4997C32.4479 10.6733 32.4479 7.24753 30.0985 4.89962C27.7507 2.55176 24.3251 2.55176 17.5005 2.55176C10.6756 2.55176 7.24933 2.55176 4.90144 4.89819C2.55206 7.24611 2.55206 10.6732 2.55206 17.4997C2.55206 24.3261 2.55206 27.7517 4.90144 30.0996ZM17.4999 4.73926C23.7211 4.73926 26.845 4.73926 28.5527 6.44696C30.2604 8.1532 30.2604 11.2769 30.2604 17.4996C30.2604 23.7223 30.2604 26.846 28.5527 28.5522C26.9469 30.1567 24.0937 30.2538 18.5951 30.2597L18.6605 21.5105H21.7069C22.3107 21.5105 22.8007 21.0205 22.8007 20.4168C22.8007 19.813 22.3107 19.323 21.7069 19.323H18.6765L18.713 14.4594C18.7188 13.5465 19.4713 12.8042 20.3901 12.8042L24.6834 12.8042C25.2872 12.8042 25.7772 12.3142 25.7772 11.7105C25.7772 11.1067 25.2872 10.6167 24.6834 10.6167L20.3901 10.6167C18.274 10.6167 16.5401 12.3331 16.5255 14.4433L16.489 19.323H14.7026C14.0988 19.323 13.6088 19.813 13.6088 20.4168C13.6088 21.0205 14.0988 21.5105 14.7026 21.5105H16.473L16.4074 30.2597C10.907 30.2539 8.05195 30.1569 6.44727 28.5522C4.73956 26.846 4.73956 23.7224 4.73956 17.4997C4.73956 11.2771 4.73956 8.1532 6.44727 6.44696C8.15643 4.73926 11.2787 4.73926 17.4999 4.73926Z" fill="#409EDC" fill-opacity="0.941176"/>
</svg>
