<svg width="516" height="477" viewBox="0 0 516 477" fill="none" xmlns="http://www.w3.org/2000/svg">
<path d="M489.759 428L41.4892 364.387C41.4892 364.387 11.8609 294.822 29.7311 233.341C34.3596 217.414 42.1722 202.032 54.5173 188.543C114.51 122.972 209.827 166.447 314.946 111.021C420.067 55.5937 546.813 142.537 509.251 270.665C471.693 398.798 489.759 428 489.759 428Z" fill="#FEEDE8"/>
<path d="M459.439 428L74.0364 373.339C74.0364 373.339 48.562 313.565 63.9285 260.734C67.909 247.05 74.6274 233.829 85.2373 222.239C136.816 165.895 218.765 203.252 309.141 155.624C399.518 108 508.493 182.707 476.197 292.805C443.905 402.908 459.439 428 459.439 428Z" fill="#FEE8DD"/>
<path d="M40.8938 434.746C40.8938 434.746 -103.575 136.393 150.566 100.172C288.586 80.5009 259.442 199.385 423.112 258.28C500.681 286.194 542.158 340.836 497.895 442L40.8938 434.742V434.746Z" fill="#FFD2BF"/>
<path fill-rule="evenodd" clip-rule="evenodd" d="M190.958 132.015C193.236 131.983 195.453 132.003 197.614 132.075L197.583 133.008C195.437 132.937 193.235 132.916 190.971 132.948L190.958 132.015ZM177.625 132.754C179.916 132.539 182.152 132.372 184.336 132.25L184.388 133.182C182.217 133.303 179.992 133.47 177.712 133.683L177.625 132.754ZM204.316 132.476C206.59 132.675 208.797 132.935 210.943 133.253L210.805 134.177C208.678 133.861 206.49 133.603 204.235 133.406L204.316 132.476ZM167.65 133.937C168.796 133.774 169.929 133.621 171.049 133.479L171.167 134.406C170.051 134.547 168.923 134.699 167.781 134.861C166.661 135.02 165.549 135.185 164.446 135.356L164.303 134.433C165.41 134.262 166.525 134.096 167.65 133.937ZM217.492 134.444C219.711 134.924 221.861 135.472 223.948 136.084L223.685 136.98C221.619 136.375 219.491 135.832 217.294 135.356L217.492 134.444ZM151.43 136.758C153.508 136.326 155.619 135.916 157.764 135.529L157.931 136.448C155.793 136.834 153.69 137.242 151.621 137.672L151.43 136.758ZM138.676 139.788C140.783 139.221 142.929 138.678 145.115 138.16L145.331 139.069C143.155 139.584 141.018 140.125 138.92 140.69L138.676 139.788ZM230.287 138.205C232.405 139.005 234.457 139.875 236.451 140.811L236.053 141.656C234.08 140.73 232.05 139.869 229.956 139.078L230.287 138.205ZM126.273 143.556C128.298 142.867 130.363 142.202 132.469 141.564L132.741 142.457C130.645 143.093 128.59 143.754 126.575 144.44L126.273 143.556ZM242.388 143.881C244.335 144.983 246.228 146.151 248.075 147.38L247.556 148.157C245.726 146.94 243.853 145.784 241.926 144.693L242.388 143.881ZM114.107 148.197C116.049 147.371 118.033 146.571 120.06 145.797L120.395 146.669C118.378 147.439 116.404 148.235 114.473 149.056L114.107 148.197ZM102.247 153.829C104.145 152.826 106.09 151.851 108.083 150.905L108.485 151.748C106.504 152.689 104.57 153.658 102.684 154.654L102.247 153.829ZM253.505 151.259C255.266 152.603 256.991 154.004 258.686 155.456L258.077 156.165C256.394 154.723 254.683 153.334 252.937 152L253.505 151.259ZM90.9838 160.454C92.8018 159.266 94.6711 158.107 96.593 156.979L97.0674 157.784C95.1582 158.905 93.3016 160.056 91.4963 161.236L90.9838 160.454ZM263.641 159.912C265.245 161.421 266.83 162.974 268.403 164.568L267.736 165.223C266.17 163.637 264.594 162.091 262.999 160.591L263.641 159.912ZM80.4337 168.126C82.1287 166.756 83.878 165.415 85.6828 164.105L86.233 164.861C84.4412 166.161 82.7049 167.492 81.0226 168.852L80.4337 168.126ZM273.009 169.373C274.508 170.978 276.002 172.616 277.5 174.284L276.804 174.907C275.309 173.243 273.818 171.609 272.325 170.009L273.009 169.373ZM70.7424 176.855C72.2717 175.32 73.8559 173.813 75.4968 172.337L76.1232 173.03C74.495 174.495 72.9231 175.99 71.4059 177.513L70.7424 176.855ZM281.916 179.265C283.364 180.915 284.821 182.589 286.293 184.283L285.586 184.895C284.114 183.201 282.659 181.528 281.212 179.88L281.916 179.265ZM62.0594 186.593C63.408 184.9 64.8117 183.234 66.2721 181.597L66.9709 182.217C65.522 183.842 64.1295 185.494 62.7917 187.174L62.0594 186.593ZM290.645 189.292C292.08 190.94 293.534 192.603 295.013 194.279L294.311 194.896C292.83 193.218 291.375 191.553 289.939 189.904L290.645 189.292ZM54.5059 197.235C55.6611 195.401 56.8703 193.592 58.1353 191.81L58.8987 192.349C57.6437 194.118 56.444 195.913 55.2979 197.732L54.5059 197.235ZM299.427 199.233C300.893 200.86 302.386 202.495 303.911 204.138L303.225 204.772C301.697 203.126 300.2 201.487 298.732 199.858L299.427 199.233ZM48.1511 208.633C49.1067 206.684 50.1142 204.756 51.1753 202.852L51.993 203.306C50.9399 205.196 49.94 207.109 48.9914 209.043L48.1511 208.633ZM308.487 208.98C309.997 210.548 311.539 212.12 313.118 213.694L312.456 214.355C310.873 212.776 309.326 211.199 307.812 209.627L308.487 208.98ZM43.0042 220.623C43.7626 218.586 44.5697 216.567 45.4273 214.567L46.2874 214.934C45.4358 216.92 44.6344 218.925 43.8812 220.949L43.0042 220.623ZM317.862 218.318C319.447 219.828 321.07 221.338 322.733 222.846L322.105 223.537C320.435 222.024 318.807 220.509 317.216 218.993L317.862 218.318ZM39.023 233.047C39.5936 230.947 40.2092 228.862 40.8716 226.792L41.7628 227.076C41.1047 229.132 40.4929 231.205 39.9259 233.291L39.023 233.047ZM327.708 227.239C329.357 228.657 331.045 230.072 332.775 231.481L332.184 232.205C330.447 230.79 328.753 229.37 327.098 227.946L327.708 227.239ZM337.991 235.612C339.719 236.943 341.489 238.267 343.302 239.585L342.752 240.339C340.932 239.017 339.155 237.687 337.419 236.351L337.991 235.612ZM36.1301 245.766C36.5272 243.626 36.9652 241.496 37.4461 239.378L38.3585 239.584C37.8804 241.689 37.4448 243.807 37.05 245.936L36.1301 245.766ZM348.703 243.396C350.517 244.638 352.372 245.873 354.271 247.098L353.764 247.882C351.857 246.652 349.994 245.413 348.174 244.165L348.703 243.396ZM359.85 250.59C361.72 251.726 363.631 252.853 365.584 253.97L365.119 254.78C363.159 253.659 361.24 252.528 359.363 251.388L359.85 250.59ZM34.2307 258.667C34.4704 256.504 34.747 254.348 35.0626 252.199L35.9882 252.334C35.6743 254.472 35.399 256.618 35.1606 258.77L34.2307 258.667ZM371.379 257.183C373.298 258.215 375.257 259.237 377.257 260.249L376.834 261.081C374.827 260.066 372.861 259.041 370.935 258.005L371.379 257.183ZM383.231 263.178C385.195 264.112 387.197 265.035 389.237 265.947L388.855 266.799C386.808 265.884 384.799 264.958 382.829 264.021L383.231 263.178ZM33.2253 271.667C33.3239 269.494 33.4557 267.324 33.6225 265.158L34.5553 265.229C34.3892 267.385 34.258 269.546 34.1599 271.709L33.2253 271.667ZM395.351 268.596C397.357 269.439 399.398 270.27 401.477 271.091L401.133 271.959C399.048 271.136 397 270.302 394.988 269.457L395.351 268.596ZM407.69 273.468C408.744 273.859 409.806 274.247 410.878 274.632C411.901 274.999 412.916 275.371 413.924 275.748L413.595 276.622C412.591 276.246 411.58 275.876 410.562 275.51C409.487 275.124 408.421 274.735 407.364 274.343L407.69 273.468ZM419.936 278.097C421.947 278.917 423.928 279.759 425.875 280.625L425.495 281.478C423.556 280.616 421.585 279.778 419.582 278.961L419.936 278.097ZM33.0184 284.701C32.9913 282.528 32.9938 280.355 33.0277 278.181L33.9631 278.196C33.9294 280.36 33.9269 282.525 33.9539 284.69L33.0184 284.701ZM431.73 283.346C433.686 284.296 435.605 285.272 437.486 286.274L437.045 287.098C435.175 286.102 433.266 285.131 431.321 284.186L431.73 283.346ZM443.124 289.425C445.001 290.524 446.835 291.653 448.625 292.812L448.115 293.595C446.338 292.445 444.516 291.323 442.65 290.23L443.124 289.425ZM33.5232 297.725C33.3843 295.56 33.2716 293.389 33.1869 291.216L34.1217 291.18C34.2061 293.345 34.3184 295.508 34.4568 297.666L33.5232 297.725ZM453.962 296.452C455.728 297.721 457.444 299.022 459.109 300.358L458.523 301.085C456.871 299.761 455.168 298.469 453.416 297.209L453.962 296.452ZM34.663 310.707C34.4245 308.554 34.209 306.393 34.0183 304.225L34.9502 304.143C35.1403 306.304 35.3551 308.458 35.5928 310.604L34.663 310.707ZM464.033 304.542C465.645 305.995 467.201 307.485 468.697 309.013L468.028 309.665C466.546 308.152 465.004 306.675 463.406 305.234L464.033 304.542ZM473.066 313.777C474.475 315.422 475.821 317.107 477.1 318.834L476.347 319.389C475.082 317.681 473.75 316.012 472.355 314.383L473.066 313.777ZM36.3716 323.625C36.0442 321.489 35.7366 319.34 35.4506 317.18L36.378 317.058C36.6632 319.211 36.9699 321.353 37.2963 323.484L36.3716 323.625ZM480.755 324.169C481.906 325.991 482.987 327.855 483.997 329.763L483.17 330.199C482.171 328.313 481.102 326.469 479.964 324.667L480.755 324.169ZM38.593 336.466C38.1857 334.348 37.7949 332.213 37.4226 330.063L38.3444 329.904C38.7157 332.048 39.1055 334.177 39.5118 336.29L38.593 336.466ZM486.798 335.591C487.651 337.558 488.432 339.567 489.139 341.62L488.254 341.924C487.555 339.893 486.783 337.907 485.939 335.962L486.798 335.591ZM41.2807 349.221C40.8006 347.122 40.3338 345.001 39.8824 342.86L40.7978 342.668C41.2481 344.803 41.7138 346.919 42.1927 349.013L41.2807 349.221ZM491.011 347.813C491.55 349.874 492.018 351.977 492.415 354.121L491.495 354.29C491.103 352.168 490.639 350.088 490.106 348.049L491.011 347.813ZM44.3962 361.884C43.8489 359.803 43.3113 357.694 42.7857 355.559L43.6942 355.336C44.2186 357.467 44.755 359.571 45.301 361.647L44.3962 361.884ZM493.365 360.507C493.605 362.613 493.779 364.758 493.885 366.941L492.951 366.986C492.846 364.823 492.674 362.698 492.436 360.612L493.365 360.507ZM47.9074 374.445C47.2971 372.382 46.6919 370.281 46.0947 368.144L46.9958 367.893C47.5917 370.025 48.1956 372.122 48.8046 374.181L47.9074 374.445ZM494 373.396C493.975 375.511 493.888 377.661 493.74 379.846L492.806 379.783C492.954 377.615 493.039 375.482 493.065 373.384L494 373.396ZM51.7846 386.883C51.1161 384.842 50.4466 382.75 49.7797 380.61L50.6731 380.333C51.3385 382.468 52.0066 384.556 52.6738 386.593L51.7846 386.883ZM493.135 386.274C492.883 388.375 492.577 390.507 492.214 392.669L491.291 392.515C491.652 390.367 491.956 388.25 492.206 386.164L493.135 386.274ZM55.9881 399.128C55.2861 397.173 54.5741 395.148 53.8566 393.059L54.7416 392.756C55.4576 394.841 56.1682 396.862 56.8688 398.813L55.9881 399.128ZM491.008 399.008C490.571 401.068 490.085 403.156 489.548 405.271L488.641 405.042C489.175 402.938 489.658 400.862 490.093 398.814L491.008 399.008ZM60.6086 411.435C59.8533 409.509 59.0688 407.469 58.2627 405.322L59.1388 404.995C59.9431 407.137 60.726 409.173 61.4797 411.094L60.6086 411.435ZM487.854 411.477C487.261 413.504 486.625 415.556 485.944 417.632L485.055 417.341C485.733 415.275 486.366 413.233 486.955 411.216L487.854 411.477ZM65.5643 423.51C64.804 421.742 63.9551 419.729 63.0367 417.489L63.9025 417.136C64.8188 419.37 65.6657 421.379 66.4239 423.142L65.5643 423.51ZM483.834 423.739C483.113 425.731 482.351 427.745 481.549 429.781L480.678 429.439C481.477 427.411 482.236 425.405 482.955 423.422L483.834 423.739ZM69.1499 431.524C68.9165 431.028 68.5738 430.292 68.1364 429.332L68.9881 428.945C69.4238 429.903 69.7648 430.635 69.9967 431.127C70.0911 431.328 70.1674 431.489 70.2247 431.609L73.2229 431.656L73.2081 432.59L70.3972 432.545V434.11L69.5085 432.278L69.5081 432.277L69.5069 432.275L69.5024 432.266L69.485 432.229C69.4696 432.197 69.4467 432.15 69.4165 432.087C69.3561 431.96 69.2667 431.772 69.1499 431.524ZM86.3523 432.798L79.7802 432.694L79.795 431.761L86.3671 431.865L86.3523 432.798ZM99.4964 433.007L92.9243 432.902L92.9392 431.969L99.5113 432.073L99.4964 433.007ZM112.641 433.215L106.069 433.111L106.083 432.177L112.655 432.281L112.641 433.215ZM125.785 433.423L119.213 433.319L119.228 432.385L125.8 432.49L125.785 433.423ZM138.929 433.631L132.357 433.527L132.372 432.594L138.944 432.698L138.929 433.631ZM152.073 433.84L145.501 433.736L145.516 432.802L152.088 432.906L152.073 433.84ZM165.217 434.048L158.645 433.944L158.66 433.01L165.232 433.115L165.217 434.048ZM178.361 434.256L171.789 434.152L171.804 433.219L178.376 433.323L178.361 434.256ZM191.506 434.465L184.934 434.361L184.948 433.427L191.52 433.531L191.506 434.465ZM204.65 434.673L198.078 434.569L198.093 433.635L204.665 433.739L204.65 434.673ZM217.794 434.881L211.222 434.777L211.237 433.844L217.809 433.948L217.794 434.881ZM230.938 435.09L224.366 434.985L224.381 434.052L230.953 434.156L230.938 435.09ZM244.082 435.298L237.51 435.194L237.525 434.26L244.097 434.364L244.082 435.298ZM257.226 435.506L250.654 435.402L250.669 434.468L257.241 434.573L257.226 435.506ZM270.371 435.714L263.799 435.61L263.813 434.677L270.385 434.781L270.371 435.714ZM283.515 435.923L276.943 435.819L276.958 434.885L283.53 434.989L283.515 435.923ZM296.659 436.131L290.087 436.027L290.102 435.093L296.674 435.197L296.659 436.131ZM309.803 436.339L303.231 436.235L303.246 435.302L309.818 435.406L309.803 436.339ZM479.121 435.715C478.699 436.71 478.268 437.71 477.827 438.715L477.702 439L474.105 438.943L474.12 438.009L477.095 438.057C477.491 437.151 477.879 436.249 478.259 435.352L479.121 435.715ZM322.947 436.548L316.375 436.443L316.39 435.51L322.962 435.614L322.947 436.548ZM336.092 436.756L329.519 436.652L329.534 435.718L336.106 435.822L336.092 436.756ZM349.236 436.964L342.664 436.86L342.678 435.927L349.251 436.031L349.236 436.964ZM362.38 437.172L355.808 437.068L355.823 436.135L362.395 436.239L362.38 437.172ZM375.524 437.381L368.952 437.277L368.967 436.343L375.539 436.447L375.524 437.381ZM388.668 437.589L382.096 437.485L382.111 436.551L388.683 436.656L388.668 437.589ZM401.812 437.797L395.24 437.693L395.255 436.76L401.827 436.864L401.812 437.797ZM414.957 438.006L408.385 437.902L408.399 436.968L414.971 437.072L414.957 438.006ZM428.101 438.214L421.529 438.11L421.544 437.176L428.116 437.28L428.101 438.214ZM441.245 438.422L434.673 438.318L434.688 437.385L441.26 437.489L441.245 438.422ZM454.389 438.631L447.817 438.526L447.832 437.593L454.404 437.697L454.389 438.631ZM467.533 438.839L460.961 438.735L460.976 437.801L467.548 437.905L467.533 438.839Z" fill="white"/>
<path d="M499.04 436H40.9598C37.6683 436 35 438.462 35 441.5C35 444.538 37.6683 447 40.9598 447H499.04C502.332 447 505 444.538 505 441.5C505 438.462 502.332 436 499.04 436Z" fill="#E54154"/>
<path d="M468.452 447H71.5479C68.4839 447 66 449.505 66 452.594V453.406C66 456.495 68.4839 459 71.5479 459H468.452C471.516 459 474 456.495 474 453.406V452.594C474 449.505 471.516 447 468.452 447Z" fill="#6B1326"/>
<path d="M167 229.502L154.5 236.751L142 244V229.502V215L154.5 222.253L167 229.502Z" fill="#112668"/>
<path d="M130.92 197H44.0804C37.9609 197 33.0001 201.928 33.0001 208.006V301.994C33.0001 308.072 37.9609 313 44.0804 313H130.92C137.039 313 142 308.072 142 301.994V208.006C142 201.928 137.039 197 130.92 197Z" fill="#040413"/>
<path d="M138.92 204H52.0804C45.9609 204 41.0001 208.928 41.0001 215.006V308.994C41.0001 315.072 45.9609 320 52.0804 320H138.92C145.039 320 150 315.072 150 308.994V215.006C150 208.928 145.039 204 138.92 204Z" fill="#409EDC" fill-opacity="0.941176"/>
<path d="M136.761 219H53.2392C52.5549 219 52.0002 219.406 52.0002 219.908V220.092C52.0002 220.594 52.5549 221 53.2392 221H136.761C137.445 221 138 220.594 138 220.092V219.908C138 219.406 137.445 219 136.761 219Z" fill="white"/>
<path d="M136.761 233H53.2392C52.5549 233 52.0002 233.61 52.0002 234.362V234.638C52.0002 235.39 52.5549 236 53.2392 236H136.761C137.445 236 138 235.39 138 234.638V234.362C138 233.61 137.445 233 136.761 233Z" fill="white"/>
<path d="M136.761 247H53.2392C52.5549 247 52.0002 247.406 52.0002 247.908V248.092C52.0002 248.594 52.5549 249 53.2392 249H136.761C137.445 249 138 248.594 138 248.092V247.908C138 247.406 137.445 247 136.761 247Z" fill="white"/>
<path d="M136.761 261H53.2392C52.5549 261 52.0002 261.61 52.0002 262.362V262.638C52.0002 263.39 52.5549 264 53.2392 264H136.761C137.445 264 138 263.39 138 262.638V262.362C138 261.61 137.445 261 136.761 261Z" fill="white"/>
<path d="M136.761 275H53.2392C52.5549 275 52.0002 275.61 52.0002 276.362V276.638C52.0002 277.39 52.5549 278 53.2392 278H136.761C137.445 278 138 277.39 138 276.638V276.362C138 275.61 137.445 275 136.761 275Z" fill="white"/>
<path d="M136.761 289H53.2392C52.5549 289 52.0002 289.406 52.0002 289.908V290.092C52.0002 290.594 52.5549 291 53.2392 291H136.761C137.445 291 138 290.594 138 290.092V289.908C138 289.406 137.445 289 136.761 289Z" fill="white"/>
<path d="M136.761 303H53.2392C52.5549 303 52.0002 303.61 52.0002 304.362V304.638C52.0002 305.39 52.5549 306 53.2392 306H136.761C137.445 306 138 305.39 138 304.638V304.362C138 303.61 137.445 303 136.761 303Z" fill="white"/>
<path fill-rule="evenodd" clip-rule="evenodd" d="M484.5 176.711C481.762 176.711 479.542 179.079 479.542 182C479.542 184.921 481.762 187.289 484.5 187.289C487.238 187.289 489.458 184.921 489.458 182C489.458 179.079 487.238 176.711 484.5 176.711ZM477 182C477 177.582 480.358 174 484.5 174C488.642 174 492 177.582 492 182C492 186.418 488.642 190 484.5 190C480.358 190 477 186.418 477 182Z" fill="#FFD2BF"/>
<path d="M416 218.002L403.5 225.501L391 233V218.002V203L403.5 210.499L416 218.002Z" fill="white"/>
<path d="M424 217.661V189.339C424 186.943 422.01 185 419.556 185H374.444C371.99 185 370 186.943 370 189.339V217.661C370 220.057 371.99 222 374.444 222H419.556C422.01 222 424 220.057 424 217.661Z" fill="white"/>
<path d="M383 207C385.209 207 387 205.433 387 203.5C387 201.567 385.209 200 383 200C380.791 200 379 201.567 379 203.5C379 205.433 380.791 207 383 207Z" fill="#409EDC" fill-opacity="0.941176"/>
<path d="M397 207C399.209 207 401 205.433 401 203.5C401 201.567 399.209 200 397 200C394.791 200 393 201.567 393 203.5C393 205.433 394.791 207 397 207Z" fill="#409EDC" fill-opacity="0.941176"/>
<path d="M410.5 207C412.433 207 414 205.433 414 203.5C414 201.567 412.433 200 410.5 200C408.567 200 407 201.567 407 203.5C407 205.433 408.567 207 410.5 207Z" fill="#409EDC" fill-opacity="0.941176"/>
<path d="M67.5 477C68.1667 477 68.1667 476 67.5 476C66.8333 476 66.8333 477 67.5 477Z" fill="#F99B51"/>
<path d="M132 419H53.0001V436H132V419Z" fill="#112668"/>
<path d="M132 419H53.0001L65.826 402H119.972L132 419Z" fill="#409EDC" fill-opacity="0.941176"/>
<path d="M76.0001 392H71.0001V402H76.0001V392Z" fill="#112668"/>
<path d="M115 392H109V402H115V392Z" fill="#112668"/>
<path d="M120 379H66.0001V392H120V379Z" fill="#409EDC" fill-opacity="0.941176"/>
<path d="M66.0001 379H41.0001V400H66.0001V379Z" fill="#409EDC" fill-opacity="0.941176"/>
<path d="M41.0001 379L44.6715 374H62.4563L66.0001 379H41.0001Z" fill="white"/>
<path d="M144 379H120V400H144V379Z" fill="#409EDC" fill-opacity="0.941176"/>
<path d="M120 379L123.525 374H140.601L144 379H120Z" fill="white"/>
<path d="M74.9394 409H69L70.43 405H76L74.9394 409Z" fill="white"/>
<path d="M85.6162 409H80L80.7332 405H86L85.6162 409Z" fill="white"/>
<path d="M96 409H90L90.1183 405H95.7451L96 409Z" fill="white"/>
<path d="M107 409H100.624L100 405H105.983L107 409Z" fill="white"/>
<path d="M117 409H111.206L110 405H115.437L117 409Z" fill="white"/>
<path d="M72.6448 415H66L67.8248 412H74L72.6448 415Z" fill="white"/>
<path d="M83.4926 415H77L77.9628 412H84L83.4926 415Z" fill="white"/>
<path d="M96 415H89L89.1574 412H95.6628L96 415Z" fill="white"/>
<path d="M109 415H101.802L101 412H107.69L109 415Z" fill="white"/>
<path d="M121 415H113.728L112 412H118.762L121 415Z" fill="white"/>
<path d="M386.611 2H153.389C147.65 2 143 6.59779 143 12.2726V51.3256C143 57.0004 147.65 61.5982 153.389 61.5982H259.257L262.689 67.4779L270 80L277.31 67.4779L280.743 61.5982H386.611C392.35 61.5982 397 57.0004 397 51.3256V12.2726C397 6.59779 392.35 2 386.611 2Z" fill="white"/>
<path d="M222.216 38C219 38 217.44 36.56 217.44 33.104V20.24H220.32V32.624C220.32 34.064 220.824 34.4 222.24 34.4H222.96V37.28L222.24 38H222.216ZM222.241 38V35.12L222.961 34.4H223.681C225.001 34.4 225.601 33.872 225.601 32.72V29.288H228.241V32.72C228.241 33.872 228.769 34.4 229.921 34.4H230.881V37.28L230.161 38C227.617 38 226.345 36.992 225.913 34.76H225.769C225.337 36.992 224.305 38 222.241 38ZM226.681 27.368C225.865 27.368 225.265 26.888 225.265 25.76C225.265 24.632 225.865 24.152 226.681 24.152H227.161C227.977 24.152 228.577 24.632 228.577 25.76C228.577 26.888 227.977 27.368 227.161 27.368H226.681ZM230.163 38V35.12L230.883 34.4H234.003L234.051 34.28L231.723 31.424V27.704C233.307 26.984 235.179 26.552 236.859 26.552C240.555 26.552 242.235 27.824 242.235 30.632C242.235 32.384 241.635 33.104 240.123 34.328L240.147 34.4H243.075V37.28L242.355 38H242.115C240.411 38 238.419 37.616 236.955 36.704C235.491 37.616 233.811 38 232.107 38H230.163ZM234.027 30.464V30.608L237.147 34.28L238.611 33.08C239.523 32.336 239.835 32.12 239.835 31.424C239.835 30.488 239.067 30.152 236.859 30.152C235.875 30.152 234.771 30.296 234.027 30.464ZM252.286 38.624L245.878 36.656C245.158 37.64 244.102 38 242.35 38V35.12L243.07 34.4C244.27 34.4 244.678 34.088 245.038 33.2L245.71 31.544C246.526 29.504 247.75 27.848 250.03 27.848C253.006 27.848 254.566 30.368 254.566 34.544V35.24L252.286 38.624ZM247.246 33.176L247.198 33.32L252.022 34.784V34.544C252.022 32.624 251.014 31.472 249.43 31.472C248.398 31.472 247.63 32 247.246 33.176ZM268.654 43.76C264.238 43.76 261.91 41.336 261.91 37.184C261.91 35.768 262.342 33.8 263.038 32.12L265.342 32.792C264.718 34.16 264.31 35.696 264.31 36.704C264.31 38.696 265.582 39.872 267.694 39.872H269.614C272.11 39.872 272.998 38.744 272.998 35.528V20.24H275.878V34.4H278.542V37.28L277.822 38H275.686C275.062 41.912 272.806 43.76 268.654 43.76ZM283.811 32.72C283.811 33.416 284.003 33.872 284.387 34.136L285.443 32.312C287.675 28.4 290.051 26.888 293.315 26.888C297.083 26.888 298.979 29.072 298.979 32.744C298.979 36.344 296.987 38 292.595 38H285.731C283.187 38 281.915 36.992 281.483 34.76H281.339C280.907 36.992 279.875 38 277.811 38V35.12L278.531 34.4H279.251C280.571 34.4 281.171 33.872 281.171 32.72V31.208H283.811V32.72ZM292.595 34.4C295.643 34.4 296.579 34.04 296.579 32.528C296.579 31.16 295.739 30.488 293.675 30.488H292.955C290.075 30.488 288.755 30.848 287.531 32.696L286.499 34.256L286.571 34.4H292.595ZM301.252 38V20.24H304.132V38H301.252ZM306.298 43.76V40.16H307.834C310.858 40.16 312.682 39.32 313.45 38H310.666C308.074 38 306.538 36.392 306.538 33.68C306.538 30.344 308.65 27.848 311.458 27.848C314.362 27.848 316.138 30.296 316.306 34.4H317.53V37.28L316.81 38H315.994C315.106 41.672 312.418 43.76 308.074 43.76H306.298ZM308.938 33.2C308.938 34.064 309.706 34.4 310.906 34.4H313.906V34.328C313.906 32.6 312.73 31.448 311.146 31.448C309.898 31.448 308.938 32.192 308.938 33.2ZM316.811 38V35.12L317.531 34.4H318.227C320.531 34.4 321.179 34.016 321.179 32.936C321.179 32.456 321.107 31.736 320.891 30.536L320.483 28.304L323.099 27.872L323.459 30.104C323.603 30.968 323.723 32.144 323.723 32.936C323.723 36.416 322.139 38 318.227 38H316.811ZM323.075 25.952C322.259 25.952 321.659 25.472 321.659 24.344C321.659 23.216 322.259 22.736 323.075 22.736H323.555C324.371 22.736 324.971 23.216 324.971 24.344C324.971 25.472 324.371 25.952 323.555 25.952H323.075ZM319.283 25.952C318.467 25.952 317.867 25.472 317.867 24.344C317.867 23.216 318.467 22.736 319.283 22.736H319.763C320.579 22.736 321.179 23.216 321.179 24.344C321.179 25.472 320.579 25.952 319.763 25.952H319.283Z" fill="#409EDC" fill-opacity="0.941176"/>
<path fill-rule="evenodd" clip-rule="evenodd" d="M142 12.1398C142 5.43375 147.416 0 154.1 0H385.9C392.584 0 398 5.43376 398 12.1398V51.5222C398 58.2283 392.584 63.6621 385.9 63.6621H281.702L278.803 68.7009L270 84L261.197 68.701L258.298 63.6621H154.1C147.416 63.6621 142 58.2283 142 51.5222V12.1398ZM154.1 3.56112C149.376 3.56112 145.549 7.40051 145.549 12.1398V51.5222C145.549 56.2616 149.376 60.101 154.1 60.101H260.348L264.271 66.9206L270 76.877L275.729 66.9207L279.652 60.101H385.9C390.624 60.101 394.45 56.2616 394.45 51.5222V12.1398C394.45 7.4005 390.624 3.56112 385.9 3.56112H154.1Z" fill="#E0E1E2"/>
<path d="M417.5 137C433.24 137 446 124.24 446 108.5C446 92.7599 433.24 80 417.5 80C401.76 80 389 92.7599 389 108.5C389 124.24 401.76 137 417.5 137Z" fill="#409EDC" fill-opacity="0.941176"/>
<path fill-rule="evenodd" clip-rule="evenodd" d="M417.5 88.4828C406.445 88.4828 397.483 97.4448 397.483 108.5C397.483 119.555 406.445 128.517 417.5 128.517C428.555 128.517 437.517 119.555 437.517 108.5C437.517 97.4448 428.555 88.4828 417.5 88.4828ZM396 108.5C396 96.6259 405.626 87 417.5 87C429.374 87 439 96.6259 439 108.5C439 120.374 429.374 130 417.5 130C405.626 130 396 120.374 396 108.5Z" fill="white"/>
<path d="M471.295 128H361.705C358.554 128 356 130.596 356 133.798V152.202C356 155.404 358.554 158 361.705 158H471.295C474.446 158 477 155.404 477 152.202V133.798C477 130.596 474.446 128 471.295 128Z" fill="white"/>
<path d="M402.269 146.005C401.94 146.005 401.676 146.227 401.624 146.599H402.927C402.919 146.236 402.633 146.005 402.269 146.005ZM403.372 147.287C403.239 147.697 402.867 148.026 402.291 148.026C401.616 148.026 401.116 147.547 401.116 146.808C401.116 146.069 401.594 145.595 402.291 145.595C402.961 145.595 403.436 146.061 403.436 146.753C403.436 146.834 403.431 146.911 403.419 146.992H401.62C401.654 147.381 401.932 147.616 402.291 147.616C402.59 147.616 402.756 147.47 402.846 147.287H403.372Z" fill="#FA8950"/>
<path d="M400.174 147.987V146.672C400.174 146.24 399.939 146.018 399.585 146.018C399.226 146.018 398.991 146.24 398.991 146.672V147.987H398.504V145.633H398.991V145.903C399.149 145.71 399.41 145.595 399.692 145.595C400.243 145.595 400.657 145.941 400.657 146.599V147.987H400.174Z" fill="#FA8950"/>
<path d="M398.023 146.808C398.023 147.547 397.476 148.026 396.801 148.026C396.13 148.026 395.622 147.547 395.622 146.808C395.622 146.069 396.151 145.595 396.822 145.595C397.493 145.595 398.023 146.069 398.023 146.808ZM396.117 146.808C396.117 147.342 396.433 147.603 396.801 147.603C397.164 147.603 397.523 147.342 397.523 146.808C397.523 146.274 397.177 146.018 396.814 146.018C396.446 146.018 396.117 146.274 396.117 146.808Z" fill="#FA8950"/>
<path d="M393.005 147.987V144.826H393.492V145.907C393.655 145.71 393.92 145.595 394.223 145.595C394.748 145.595 395.159 145.941 395.159 146.599V147.987H394.676V146.672C394.676 146.24 394.441 146.018 394.086 146.018C393.727 146.018 393.492 146.24 393.492 146.672V147.987H393.005Z" fill="#FA8950"/>
<path d="M390.597 145.979C390.747 145.783 391.033 145.595 391.417 145.595C392.037 145.595 392.524 146.073 392.524 146.8C392.524 147.526 392.037 148.026 391.417 148.026C391.029 148.026 390.751 147.829 390.597 147.646V149.107H390.11V145.633H390.597V145.979ZM392.028 146.8C392.028 146.291 391.678 146.018 391.311 146.018C390.947 146.018 390.597 146.304 390.597 146.808C390.597 147.317 390.947 147.603 391.311 147.603C391.678 147.603 392.028 147.308 392.028 146.8Z" fill="#FA8950"/>
<path d="M388.465 146.005C388.136 146.005 387.871 146.227 387.82 146.599H389.122C389.114 146.236 388.828 146.005 388.465 146.005ZM389.567 147.287C389.434 147.697 389.063 148.026 388.486 148.026C387.811 148.026 387.311 147.547 387.311 146.808C387.311 146.069 387.79 145.595 388.486 145.595C389.157 145.595 389.631 146.061 389.631 146.753C389.631 146.834 389.627 146.911 389.614 146.992H387.815C387.849 147.381 388.127 147.616 388.486 147.616C388.785 147.616 388.952 147.47 389.041 147.287H389.567Z" fill="#FA8950"/>
<path d="M386.347 147.987V144.826H386.834V147.987H386.347Z" fill="#FA8950"/>
<path d="M384.702 146.005C384.373 146.005 384.108 146.227 384.057 146.599H385.36C385.351 146.236 385.065 146.005 384.702 146.005ZM385.804 147.287C385.671 147.697 385.3 148.026 384.723 148.026C384.048 148.026 383.548 147.547 383.548 146.808C383.548 146.069 384.027 145.595 384.723 145.595C385.394 145.595 385.868 146.061 385.868 146.753C385.868 146.834 385.864 146.911 385.851 146.992H384.052C384.087 147.381 384.364 147.616 384.723 147.616C385.022 147.616 385.189 147.47 385.278 147.287H385.804Z" fill="#FA8950"/>
<path d="M382.198 147.334V146.031H381.92V145.634H382.198V145.048H382.689V145.634H383.262V146.031H382.689V147.334C382.689 147.509 382.758 147.582 382.963 147.582H383.262V147.987H382.877C382.459 147.987 382.198 147.812 382.198 147.334Z" fill="#FA8950"/>
<path d="M426.085 117.307L426.977 113.447C427.073 113.027 426.857 112.597 426.462 112.427L422.306 110.646C421.943 110.489 421.517 110.592 421.268 110.902L419.426 113.152C416.579 111.815 414.211 109.483 412.849 106.576L415.1 104.735C415.409 104.482 415.512 104.059 415.356 103.697L413.575 99.5415C413.4 99.1434 412.97 98.9266 412.551 99.0226L408.69 99.9148C408.288 100.007 408 100.363 408 100.782C408 110.287 415.7 118 425.221 118C425.637 118 425.996 117.716 426.089 117.31L426.085 117.307Z" fill="white"/>
<path d="M116 151C131.464 151 144 138.24 144 122.5C144 106.76 131.464 94 116 94C100.536 94 88 106.76 88 122.5C88 138.24 100.536 151 116 151Z" fill="#409EDC" fill-opacity="0.941176"/>
<path fill-rule="evenodd" clip-rule="evenodd" d="M116 101.458C104.12 101.458 94.4899 110.879 94.4899 122.5C94.4899 134.121 104.12 143.542 116 143.542C127.88 143.542 137.51 134.121 137.51 122.5C137.51 110.879 127.88 101.458 116 101.458ZM93 122.5C93 110.074 103.297 100 116 100C128.703 100 139 110.074 139 122.5C139 134.926 128.703 145 116 145C103.297 145 93 134.926 93 122.5Z" fill="white"/>
<path d="M166.408 142H61.5918C58.5035 142 56 144.541 56 147.675V166.325C56 169.459 58.5035 172 61.5918 172H166.408C169.496 172 172 169.459 172 166.325V147.675C172 144.541 169.496 142 166.408 142Z" fill="white"/>
<path d="M103.585 162.708V161.392C103.585 160.961 103.35 160.739 102.995 160.739C102.637 160.739 102.402 160.961 102.402 161.392V162.708H101.915V160.354H102.402V160.624C102.56 160.431 102.82 160.316 103.102 160.316C103.653 160.316 104.068 160.662 104.068 161.32V162.708H103.585Z" fill="#FA8950"/>
<path d="M101.433 161.529C101.433 162.268 100.886 162.747 100.211 162.747C99.5405 162.747 99.0322 162.268 99.0322 161.529C99.0322 160.79 99.5619 160.316 100.233 160.316C100.903 160.316 101.433 160.79 101.433 161.529ZM99.5277 161.529C99.5277 162.063 99.8438 162.324 100.211 162.324C100.574 162.324 100.933 162.063 100.933 161.529C100.933 160.995 100.587 160.739 100.224 160.739C99.8567 160.739 99.5277 160.995 99.5277 161.529Z" fill="#FA8950"/>
<path d="M98.0639 162.708V160.354H98.5509V162.708H98.0639ZM98.3117 160.042C98.1365 160.042 97.9998 159.906 97.9998 159.731C97.9998 159.555 98.1365 159.419 98.3117 159.419C98.4826 159.419 98.6193 159.555 98.6193 159.731C98.6193 159.906 98.4826 160.042 98.3117 160.042Z" fill="#FA8950"/>
<path d="M96.5513 162.055V160.752H96.2736V160.354H96.5513V159.769H97.0426V160.354H97.615V160.752H97.0426V162.055C97.0426 162.23 97.1109 162.302 97.316 162.302H97.615V162.708H97.2305C96.8119 162.708 96.5513 162.533 96.5513 162.055Z" fill="#FA8950"/>
<path d="M93.4168 161.521C93.4168 160.794 93.9081 160.316 94.5276 160.316C94.9249 160.316 95.1983 160.504 95.3435 160.696V160.354H95.8348V162.708H95.3435V162.358C95.194 162.559 94.912 162.747 94.519 162.747C93.9081 162.747 93.4168 162.247 93.4168 161.521ZM95.3435 161.529C95.3435 161.025 94.9975 160.739 94.6301 160.739C94.267 160.739 93.9167 161.012 93.9167 161.521C93.9167 162.029 94.267 162.324 94.6301 162.324C94.9975 162.324 95.3435 162.038 95.3435 161.529Z" fill="#FA8950"/>
<path d="M90.8552 161.529C90.8552 160.794 91.3337 160.316 92.0087 160.316C92.5854 160.316 92.9613 160.602 93.0938 161.098H92.5683C92.4871 160.871 92.2992 160.726 92.0087 160.726C91.6156 160.726 91.3551 161.017 91.3551 161.529C91.3551 162.046 91.6156 162.337 92.0087 162.337C92.2992 162.337 92.4786 162.208 92.5683 161.965H93.0938C92.9613 162.426 92.5854 162.747 92.0087 162.747C91.3337 162.747 90.8552 162.268 90.8552 161.529Z" fill="#FA8950"/>
<path d="M90.5362 161.529C90.5362 162.268 89.9894 162.747 89.3144 162.747C88.6437 162.747 88.1353 162.268 88.1353 161.529C88.1353 160.79 88.6651 160.316 89.3358 160.316C90.0065 160.316 90.5362 160.79 90.5362 161.529ZM88.6309 161.529C88.6309 162.063 88.947 162.324 89.3144 162.324C89.6775 162.324 90.0364 162.063 90.0364 161.529C90.0364 160.995 89.6904 160.739 89.3272 160.739C88.9598 160.739 88.6309 160.995 88.6309 161.529Z" fill="#FA8950"/>
<path d="M87.167 162.708V159.547H87.654V162.708H87.167Z" fill="#FA8950"/>
<path d="M115.998 111C111.583 111 108 114.475 108 118.757C108 121.76 111.929 128.379 114.278 132.069C115.069 133.31 116.928 133.31 117.718 132.069C120.071 128.379 124 121.76 124 118.757C124 114.475 120.417 111 115.998 111ZM115.959 122.249C113.967 122.249 112.351 120.681 112.351 118.747C112.351 116.812 113.967 115.248 115.959 115.248C117.95 115.248 119.57 116.815 119.57 118.747C119.57 120.678 117.954 122.249 115.959 122.249Z" fill="white"/>
<path d="M288 243.931L277.568 255H249.431L237 245.837L241.184 224.252L242.446 217.714L281.196 212L283.955 224.932L288 243.931Z" fill="#E78964"/>
<path d="M283.996 224.896L274.075 241.448C266.396 244.94 251.584 241.448 251.584 241.448L241 224.218L242.272 217.698L281.227 212L284 224.896H283.996Z" fill="#D86059"/>
<path d="M299 243.395V351L233.387 348.729L229 245.84L235.579 240.128L236.55 240.085L238.435 240L237.304 245.829L249.756 254.972H277.941L288.39 243.928L287.79 241.116L291.267 241.361L299 243.395Z" fill="white"/>
<path d="M290.407 241.313L291 244.232L279.243 262.342L250.054 263L236 246.602L237.182 240.086L239.046 240L237.927 245.897L250.238 255.146H278.103L288.434 243.974L287.841 241.129L290.407 241.313Z" fill="#FEEDE8"/>
<path d="M244 267.471V401L197.093 390.333L153 335.648L185.933 268.112L234.383 239.012C234.383 239.012 234.383 239.008 234.39 239.004C234.433 238.987 234.7 238.969 236.104 240.128L232.26 246.478C232.26 246.478 238.103 260.996 244 267.471Z" fill="#409EDC" fill-opacity="0.941176"/>
<path d="M185 283V345H196L185 283Z" fill="#112668"/>
<path d="M244 267.135V291L227 246.121L234.047 239.011C234.047 239.011 234.047 239.008 234.054 239.004C234.099 238.987 234.375 238.969 235.828 240.115L231.849 246.39C231.849 246.39 237.897 260.736 244 267.135Z" fill="#112668"/>
<path d="M300.368 434.861L298.133 420.302L285.243 336.295L283.011 289.275L282 267.993L294.579 248.45C294.579 248.45 294.232 244.747 291.357 241.257L293.14 239L347.373 260.787C347.373 260.787 398.262 350.598 412.393 387.082C414.614 392.815 415.926 397.23 415.993 399.776C417.012 439.173 300.368 434.861 300.368 434.861Z" fill="#409EDC" fill-opacity="0.941176"/>
<path d="M319.843 287L320.687 349.008L294 344.754L303.1 362.631L334 364L319.843 287Z" fill="#112668"/>
<path d="M300 435.861L301.068 415.927C323.617 417.3 387.215 426.231 410.154 405.623C410.154 405.623 414.954 401.314 412.382 388C414.61 393.742 415.926 398.165 415.993 400.715C417.015 440.18 300 435.861 300 435.861Z" fill="#112668"/>
<path d="M300 247.523L282.98 289L282 267.835L294.191 248.398C294.191 248.398 293.855 244.715 291.069 241.245L292.796 239L300 247.523Z" fill="#112668"/>
<path d="M232 182.771L234.146 210.989C234.146 210.989 240.853 220.7 252.922 229.683C252.922 229.683 264.904 233.132 275.636 228.867C275.636 228.867 288.667 216.06 290.961 209.354L292 174.518L287.08 162L235.129 167.986L232 182.778V182.771Z" fill="#FFBA90"/>
<path d="M226.351 159.241C226.351 159.241 224.389 151.613 229.744 142.623C235.099 133.632 250.275 129 250.275 129L283.77 133.237L281.583 135.266C281.583 135.266 295.632 140.668 299.816 146.481L295.524 146.934C295.524 146.934 303.317 160.396 300.31 165.642C297.303 170.888 226.347 159.241 226.347 159.241H226.351Z" fill="#000018"/>
<path d="M235.473 177.46L240.107 180.993C240.107 180.993 279.565 181.415 290.193 175.86C300.82 170.31 285.827 164 285.827 164C285.827 164 223.753 165.599 235.473 177.46Z" fill="#E78964"/>
<path d="M225 162.413C225 162.413 228.82 129.474 267.898 134.527C288.237 137.157 296.011 152.767 298.789 167.133C301.348 180.369 279.795 162.413 279.795 162.413H225Z" fill="white"/>
<path d="M230 162.172C230 162.172 233.458 131.832 268.84 136.485C287.253 138.906 294.292 153.287 296.809 166.517C299.127 178.708 279.613 162.172 279.613 162.172H230Z" fill="#FEEDE8"/>
<path d="M236 172.284V186L231.412 182.747L230 162L236 172.284Z" fill="#333333"/>
<path d="M288 172.284V186L293.486 182.112L294 162L288 172.284Z" fill="#333333"/>
<path d="M275 206C274.959 207.038 274.793 208.089 274.575 209.065C274.018 211.537 273.129 213.505 273.129 213.505C270.017 215.787 256.693 214.777 256.693 214.777C255.015 213.181 253.882 211.271 253.148 209.696C252.312 207.896 252 206.524 252 206.524C266.855 208.72 275 206 275 206Z" fill="#7C1628"/>
<path d="M275 206C274.959 207.166 274.793 208.348 274.575 209.445C264.943 212.026 256.2 210.751 253.148 210.154C252.312 208.131 252 206.589 252 206.589C266.855 209.057 275 206 275 206Z" fill="white"/>
<path d="M307 171.057L305.868 202.03L294.478 208.915L291 209L292.652 163.12L297.472 163L307 171.057Z" fill="#61566D"/>
<path d="M298 163L294.762 208.915L291 209L292.787 163.12L298 163Z" fill="#4B4353"/>
<path d="M230.332 157.117C230.332 157.117 227.051 170.357 241.126 178C241.126 178 267.909 176.635 277.476 174.452L275.015 172.268C275.015 172.268 286.904 173.222 292.778 171.45L295 165.289C295 165.289 292.506 147.701 280.481 141.423C268.456 135.144 236.75 135.963 230.328 157.121L230.332 157.117Z" fill="#000018"/>
<path d="M241 164L244.671 167L270 166.116L241 164Z" fill="#61566D"/>
<path d="M260 196C260 196 263.219 199.306 268 196V196.96C268 196.96 263.998 201.476 260.188 197.069L260 196Z" fill="#D86059"/>
<path d="M233 211L228.996 208.277L217.829 201.609L216 170.368L225.013 162H229.673L233 211Z" fill="#61566D"/>
<path d="M233 211L228.99 208.277L225 162H229.668L233 211Z" fill="#4B4353"/>
<path d="M231.917 200.884L230.013 201.089C229.749 201.118 229.558 201.355 229.587 201.619L229.862 204.164C229.89 204.427 230.127 204.618 230.391 204.59L232.295 204.384C232.559 204.356 232.75 204.119 232.722 203.855L232.447 201.31C232.418 201.046 232.181 200.855 231.917 200.884Z" fill="#61566D"/>
<path d="M262 218.518V221L232.801 218.624L230 202H232.22L235.078 216.466L262 218.518Z" fill="#FEEDE8"/>
<path d="M262 218.784V220L232.602 217.589L230 202H232.017L234.895 216.699L262 218.784Z" fill="white"/>
<path d="M264 220.5C264 222.431 262.658 224 261 224C259.342 224 258 222.431 258 220.5C258 220.083 258.062 219.681 258.179 219.312C258.595 217.963 259.703 217 261 217C262.297 217 263.405 217.963 263.821 219.312C263.938 219.681 264 220.083 264 220.5Z" fill="#4B4353"/>
<path d="M264 219.002C263.557 220.166 262.383 221 261 221C259.617 221 258.443 220.166 258 219.002C258.443 217.834 259.621 217 261 217C262.379 217 263.557 217.834 264 219.002Z" fill="#61566D"/>
<path d="M336 436H297V427H331.665L336 436Z" fill="#F77F53"/>
<path d="M146.348 336L142 342.362L163.018 431.637L168.455 436H300.011L304 432.184L302.548 343.819L297.293 337.271L146.348 336Z" fill="white"/>
<path d="M300 428.409L296.211 432H171.148L165.983 427.898L159.256 399.64H159.252L159.071 398.879L146 343.983L150.134 338L293.625 339.199L298.623 345.35L299.548 401.168L300 428.409Z" fill="#FA9555"/>
<path d="M210.697 380L210 380.891L213.374 393.391L214.246 394H235.361L236 393.467L235.768 381.094L234.925 380.179L210.697 380Z" fill="white"/>
<path d="M300 428.56L296.204 432H170.915L165.74 428.071L159 401L174.568 411.82H289.796L299.547 402.464L300 428.56Z" fill="#F77F53"/>
<path d="M445.5 338C461.24 338 474 325.24 474 309.5C474 293.76 461.24 281 445.5 281C429.76 281 417 293.76 417 309.5C417 325.24 429.76 338 445.5 338Z" fill="#409EDC" fill-opacity="0.941176"/>
<path fill-rule="evenodd" clip-rule="evenodd" d="M445.5 288.446C433.872 288.446 424.446 297.872 424.446 309.5C424.446 321.128 433.872 330.554 445.5 330.554C457.128 330.554 466.554 321.128 466.554 309.5C466.554 297.872 457.128 288.446 445.5 288.446ZM423 309.5C423 297.074 433.074 287 445.5 287C457.926 287 468 297.074 468 309.5C468 321.926 457.926 332 445.5 332C433.074 332 423 321.926 423 309.5Z" fill="white"/>
<path d="M451.041 315.826C449.368 315.826 448.261 315.121 447.884 313.945C447.013 315.168 445.576 315.873 443.927 315.873C441.595 315.873 440.182 314.392 440.182 311.97C440.182 308.536 442.42 305.385 445.647 305.385C446.989 305.385 447.884 305.903 448.332 306.796L448.544 305.55H451.794L450.758 311.452C450.57 312.534 450.687 313.24 451.606 313.24C453.231 313.24 453.938 310.676 453.938 308.466C453.938 304.891 451.559 302.704 447.437 302.704C442.043 302.704 438.039 306.937 438.039 312.275C438.039 316.062 440.37 318.272 444.351 318.272C445.859 318.272 447.343 317.966 448.52 317.426L449.156 319.989C447.602 320.671 445.859 321 443.974 321C438.557 321 435 317.708 435 312.581C435 305.362 440.488 300 447.837 300C453.49 300 457 303.41 457 308.348C457 312.275 454.904 315.826 451.041 315.826ZM447.743 310.065C447.743 309.007 447.131 308.254 446.071 308.254C444.657 308.254 443.668 309.665 443.668 311.264C443.668 312.275 444.186 312.981 445.246 312.981C446.589 312.981 447.743 311.664 447.743 310.065Z" fill="white"/>
<path d="M477.496 329H411.504C409.017 329 407 330.969 407 333.398V353.602C407 356.031 409.017 358 411.504 358H477.496C479.983 358 482 356.031 482 353.602V333.398C482 330.969 479.983 329 477.496 329Z" fill="white"/>
<path d="M436.184 349.007V345.846H436.671V349.007H436.184Z" fill="#FA8950"/>
<path d="M435.057 349.007V346.653H435.544V349.007H435.057ZM435.305 346.341C435.13 346.341 434.993 346.205 434.993 346.03C434.993 345.854 435.13 345.718 435.305 345.718C435.476 345.718 435.613 345.854 435.613 346.03C435.613 346.205 435.476 346.341 435.305 346.341Z" fill="#FA8950"/>
<path d="M432 347.819C432 347.093 432.491 346.615 433.111 346.615C433.508 346.615 433.781 346.803 433.926 346.995V346.653H434.418V349.007H433.926V348.657C433.777 348.858 433.495 349.046 433.102 349.046C432.491 349.046 432 348.546 432 347.819ZM433.926 347.828C433.926 347.324 433.58 347.038 433.213 347.038C432.85 347.038 432.5 347.311 432.5 347.819C432.5 348.328 432.85 348.623 433.213 348.623C433.58 348.623 433.926 348.336 433.926 347.828Z" fill="#FA8950"/>
<path d="M431.06 349.007V347.691C431.06 347.26 430.825 347.038 430.47 347.038C430.111 347.038 429.876 347.26 429.876 347.691V349.007H429.394V347.691C429.394 347.26 429.159 347.038 428.804 347.038C428.445 347.038 428.21 347.26 428.21 347.691V349.007H427.723V346.653H428.21V346.922C428.368 346.73 428.625 346.615 428.907 346.615C429.278 346.615 429.59 346.773 429.753 347.08C429.898 346.794 430.231 346.615 430.573 346.615C431.124 346.615 431.543 346.961 431.543 347.619V349.007H431.06Z" fill="#FA8950"/>
<path d="M426.078 347.025C425.749 347.025 425.484 347.247 425.433 347.619H426.736C426.727 347.256 426.441 347.025 426.078 347.025ZM427.18 348.306C427.048 348.717 426.676 349.046 426.099 349.046C425.424 349.046 424.924 348.567 424.924 347.828C424.924 347.089 425.403 346.615 426.099 346.615C426.77 346.615 427.244 347.08 427.244 347.772C427.244 347.854 427.24 347.931 427.227 348.012H425.428C425.463 348.4 425.74 348.635 426.099 348.635C426.398 348.635 426.565 348.49 426.654 348.306H427.18Z" fill="#FA8950"/>
</svg>
