<svg width="35" height="35" viewBox="0 0 35 35" fill="none" xmlns="http://www.w3.org/2000/svg">
<path fill-rule="evenodd" clip-rule="evenodd" d="M9.84373 17.4997C9.84373 13.2712 13.2715 9.84342 17.5 9.84342C21.7284 9.84342 25.1562 13.2712 25.1562 17.4997C25.1562 21.7281 21.7284 25.1559 17.5 25.1559C13.2715 25.1559 9.84373 21.7281 9.84373 17.4997ZM17.5 12.0309C14.4797 12.0309 12.0312 14.4794 12.0312 17.4997C12.0312 20.52 14.4797 22.9684 17.5 22.9684C20.5203 22.9684 22.9687 20.52 22.9687 17.4997C22.9687 14.4794 20.5203 12.0309 17.5 12.0309Z" fill="#409EDC" fill-opacity="0.941176"/>
<path d="M25.5322 10.9372C26.3376 10.9372 26.9905 10.2843 26.9905 9.47884C26.9905 8.67343 26.3376 8.02051 25.5322 8.02051H25.5191C24.7137 8.02051 24.0608 8.67343 24.0608 9.47884C24.0608 10.2843 24.7137 10.9372 25.5191 10.9372H25.5322Z" fill="#409EDC" fill-opacity="0.941176"/>
<path fill-rule="evenodd" clip-rule="evenodd" d="M17.5834 2.55176C20.7781 2.55174 23.2875 2.55172 25.2466 2.81512C27.2542 3.08504 28.8471 3.64947 30.0986 4.90101C31.3502 6.15254 31.9146 7.74542 32.1845 9.75304C32.4479 11.7122 32.4479 14.2215 32.4479 17.4163V17.583C32.4479 20.7778 32.4479 23.2872 32.1845 25.2463C31.9146 27.2539 31.3502 28.8468 30.0986 30.0983C28.8471 31.3499 27.2542 31.9143 25.2466 32.1842C23.2875 32.4476 20.7782 32.4476 17.5834 32.4476H17.4166C14.2218 32.4476 11.7125 32.4476 9.75335 32.1842C7.74572 31.9143 6.15285 31.3499 4.90131 30.0983C3.64977 28.8468 3.08535 27.2539 2.81543 25.2463C2.55203 23.2872 2.55204 20.7778 2.55206 17.5831V17.4163C2.55204 14.2215 2.55203 11.7122 2.81543 9.75304C3.08535 7.74542 3.64977 6.15254 4.90131 4.90101C6.15285 3.64947 7.74572 3.08504 9.75335 2.81512C11.7125 2.55172 14.2218 2.55174 17.4165 2.55176H17.5834ZM10.0448 4.98312C8.27977 5.22042 7.22546 5.67045 6.44811 6.4478C5.67075 7.22516 5.22073 8.27946 4.98342 10.0445C4.74189 11.841 4.73956 14.2033 4.73956 17.4997C4.73956 20.7961 4.74189 23.1583 4.98342 24.9548C5.22073 26.7199 5.67075 27.7742 6.44811 28.5515C7.22546 29.3289 8.27977 29.7789 10.0448 30.0162C11.8413 30.2578 14.2036 30.2601 17.5 30.2601C20.7964 30.2601 23.1586 30.2578 24.9551 30.0162C26.7202 29.7789 27.7745 29.3289 28.5518 28.5515C29.3292 27.7742 29.7792 26.7199 30.0165 24.9548C30.2581 23.1583 30.2604 20.7961 30.2604 17.4997C30.2604 14.2033 30.2581 11.841 30.0165 10.0445C29.7792 8.27946 29.3292 7.22516 28.5518 6.4478C27.7745 5.67045 26.7202 5.22042 24.9551 4.98312C23.1586 4.74158 20.7964 4.73926 17.5 4.73926C14.2036 4.73926 11.8413 4.74158 10.0448 4.98312Z" fill="#409EDC" fill-opacity="0.941176"/>
</svg>
