<svg width="44" height="44" viewBox="0 0 44 44" fill="none" xmlns="http://www.w3.org/2000/svg">
<path fill-rule="evenodd" clip-rule="evenodd" d="M22 22.4582C18.7147 22.4582 16.0417 19.7852 16.0417 16.4998C16.0417 13.2145 18.7147 10.5415 22 10.5415C25.2854 10.5415 27.9584 13.2145 27.9584 16.4998C27.9584 19.7852 25.2854 22.4582 22 22.4582ZM22 13.2915C20.2309 13.2915 18.7917 14.7307 18.7917 16.4998C18.7917 18.269 20.2309 19.7082 22 19.7082C23.7692 19.7082 25.2084 18.269 25.2084 16.4998C25.2084 14.7307 23.7692 13.2915 22 13.2915Z" fill="white"/>
<path fill-rule="evenodd" clip-rule="evenodd" d="M18.7421 33.064C19.6221 33.9092 20.779 34.3748 22 34.3748C23.221 34.3748 24.3759 33.9092 25.2559 33.0622C25.6849 32.6497 26.125 32.2317 26.5705 31.81C32.065 26.5997 38.9032 20.1151 35.1248 11.0292C32.9523 5.80232 27.676 2.2915 22 2.2915C16.324 2.2915 11.0495 5.80232 8.87695 11.0292C5.11129 20.0803 11.8928 26.5355 17.3414 31.722L17.3942 31.7723C17.8492 32.2061 18.2991 32.6351 18.7421 33.064ZM11.4161 12.0852C13.167 7.87216 17.4203 5.0415 22 5.0415V5.03967C26.5796 5.03967 30.8348 7.87032 32.5875 12.0833C35.6381 19.4203 30.0685 24.704 24.6803 29.8135C24.2293 30.2407 23.7857 30.6623 23.3512 31.0803C22.9863 31.4323 22.506 31.6248 22 31.6248C21.494 31.6248 21.0136 31.4305 20.6524 31.084C20.1904 30.6367 19.7175 30.1857 19.2372 29.7292C13.8987 24.6473 8.37658 19.3907 11.4161 12.0852Z" fill="white"/>
<path d="M22 41.7082C16.0417 41.7082 5.95837 40.5513 5.95837 36.2155C5.95837 34.175 8.16939 32.6405 12.5309 31.6578C13.2716 31.491 14.0067 31.9567 14.1753 32.6973C14.3422 33.438 13.8765 34.1732 13.1359 34.3418C9.98252 35.0532 8.90635 35.9093 8.72485 36.2173C9.16485 37.0405 13.541 38.9582 22.0018 38.9582C30.4627 38.9582 34.8371 37.0405 35.2789 36.2173C35.0974 35.9093 34.0212 35.0513 30.8679 34.3418C30.1272 34.175 29.6616 33.4398 29.8284 32.6973C29.9952 31.9567 30.7304 31.491 31.4729 31.6578C35.8344 32.6405 38.0454 34.1732 38.0454 36.2155C38.0454 38.0378 36.2616 39.4641 32.7471 40.4505C29.8596 41.2608 26.0444 41.7082 22.0037 41.7082H22Z" fill="white"/>
</svg>
