<svg width="35" height="35" viewBox="0 0 35 35" fill="none" xmlns="http://www.w3.org/2000/svg">
<path fill-rule="evenodd" clip-rule="evenodd" d="M10.2087 9.11475C9.79795 9.11475 9.42184 9.34486 9.23485 9.71056C9.04786 10.0763 9.08152 10.5159 9.322 10.8489L14.8922 18.5615L9.43529 24.0184C9.00815 24.4456 9.00815 25.1381 9.43529 25.5652C9.86242 25.9924 10.5549 25.9924 10.9821 25.5652L16.1895 20.3578L19.8544 25.4322C20.06 25.7169 20.3899 25.8856 20.7411 25.8856H24.792C25.2028 25.8856 25.5789 25.6555 25.7659 25.2898C25.9528 24.9241 25.9192 24.4844 25.6787 24.1514L20.1085 16.4388L25.5654 10.9819C25.9925 10.5548 25.9925 9.86223 25.5654 9.4351C25.1383 9.00796 24.4458 9.00796 24.0186 9.4351L18.8112 14.6426L15.1463 9.56812C14.9407 9.2834 14.6108 9.11475 14.2596 9.11475H10.2087ZM22.6529 23.6981H21.3003L12.3478 11.3022H13.7004L22.6529 23.6981Z" fill="#409EDC" fill-opacity="0.941176"/>
<path fill-rule="evenodd" clip-rule="evenodd" d="M17.5837 2.55225H17.417C14.2222 2.55223 11.7129 2.55221 9.75371 2.81561C7.74609 3.08553 6.15322 3.64996 4.90168 4.90149C3.65014 6.15303 3.08571 7.74591 2.8158 9.75353C2.55239 11.7127 2.55241 14.222 2.55243 17.4168V17.5835C2.55241 20.7783 2.55239 23.2876 2.8158 25.2468C3.08571 27.2544 3.65014 28.8473 4.90168 30.0988C6.15322 31.3504 7.74609 31.9148 9.75371 32.1847C11.7129 32.4481 14.2222 32.4481 17.4169 32.4481H17.5837C20.7785 32.4481 23.2878 32.4481 25.247 32.1847C27.2546 31.9148 28.8475 31.3504 30.099 30.0988C31.3506 28.8473 31.915 27.2544 32.1849 25.2468C32.4483 23.2877 32.4483 20.7783 32.4483 17.5836V17.4168C32.4483 14.222 32.4483 11.7127 32.1849 9.75353C31.915 7.74591 31.3506 6.15303 30.099 4.90149C28.8475 3.64996 27.2546 3.08553 25.247 2.81561C23.2878 2.55221 20.7785 2.55223 17.5837 2.55225ZM6.44847 6.44829C7.22583 5.67093 8.28014 5.22091 10.0452 4.98361C11.8417 4.74207 14.204 4.73975 17.5003 4.73975C20.7967 4.73975 23.159 4.74207 24.9555 4.98361C26.7206 5.22091 27.7749 5.67093 28.5522 6.44829C29.3296 7.22565 29.7796 8.27995 30.0169 10.045C30.2584 11.8415 30.2608 14.2038 30.2608 17.5002C30.2608 20.7965 30.2584 23.1588 30.0169 24.9553C29.7796 26.7204 29.3296 27.7747 28.5522 28.552C27.7749 29.3294 26.7206 29.7794 24.9555 30.0167C23.159 30.2583 20.7967 30.2606 17.5003 30.2606C14.204 30.2606 11.8417 30.2583 10.0452 30.0167C8.28014 29.7794 7.22583 29.3294 6.44847 28.552C5.67112 27.7747 5.22109 26.7204 4.98379 24.9553C4.74225 23.1588 4.73993 20.7965 4.73993 17.5002C4.73993 14.2038 4.74225 11.8415 4.98379 10.045C5.22109 8.27995 5.67112 7.22565 6.44847 6.44829Z" fill="#409EDC" fill-opacity="0.941176"/>
</svg>
