<svg width="44" height="44" viewBox="0 0 44 44" fill="none" xmlns="http://www.w3.org/2000/svg">
<path d="M18.7917 34.8332C18.7917 34.0738 19.4073 33.4582 20.1667 33.4582H23.8334C24.5927 33.4582 25.2084 34.0738 25.2084 34.8332C25.2084 35.5926 24.5927 36.2082 23.8334 36.2082H20.1667C19.4073 36.2082 18.7917 35.5926 18.7917 34.8332Z" fill="white"/>
<path fill-rule="evenodd" clip-rule="evenodd" d="M21.8978 2.2915H22.1022C25.0403 2.29147 27.3851 2.29145 29.2241 2.53869C31.1239 2.79412 32.6885 3.33588 33.9262 4.57363C35.164 5.81139 35.7057 7.37598 35.9612 9.2758C36.2084 11.1148 36.2084 13.4596 36.2084 16.3976V27.602C36.2084 30.5401 36.2084 32.8849 35.9612 34.7239C35.7057 36.6237 35.164 38.1883 33.9262 39.4261C32.6885 40.6638 31.1239 41.2056 29.2241 41.461C27.3851 41.7082 25.0403 41.7082 22.1022 41.7082H21.8978C18.9597 41.7082 16.615 41.7082 14.776 41.461C12.8762 41.2056 11.3116 40.6638 10.0738 39.4261C8.83606 38.1883 8.2943 36.6237 8.03888 34.7239C7.79163 32.8849 7.79166 30.5401 7.79169 27.6021V16.3976C7.79166 13.4596 7.79163 11.1148 8.03888 9.2758C8.2943 7.37598 8.83606 5.81139 10.0738 4.57363C11.3116 3.33588 12.8762 2.79412 14.776 2.53869C16.615 2.29145 18.9597 2.29147 21.8978 2.2915ZM15.1424 5.26417C13.5475 5.4786 12.66 5.87653 12.0184 6.51818C11.3767 7.15982 10.9788 8.04735 10.7644 9.64223C10.5446 11.2767 10.5417 13.4361 10.5417 16.4998V27.4998C10.5417 30.5636 10.5446 32.723 10.7644 34.3575C10.9788 35.9523 11.3767 36.8399 12.0184 37.4815C12.66 38.1231 13.5475 38.5211 15.1424 38.7355C16.7768 38.9553 18.9363 38.9582 22 38.9582C25.0637 38.9582 27.2232 38.9553 28.8576 38.7355C30.4525 38.5211 31.34 38.1231 31.9817 37.4815C32.6233 36.8399 33.0213 35.9523 33.2357 34.3575C33.4554 32.723 33.4584 30.5636 33.4584 27.4998V16.4998C33.4584 13.4361 33.4554 11.2767 33.2357 9.64223C33.0213 8.04735 32.6233 7.15982 31.9817 6.51818C31.34 5.87653 30.4525 5.4786 28.8576 5.26417C28.7837 5.25423 28.7086 5.24473 28.6325 5.23565C28.486 6.11041 28.3507 6.87618 28.1675 7.50033C27.9492 8.24434 27.6217 8.94296 26.9915 9.50213C26.3396 10.0805 25.5888 10.3235 24.7846 10.4346C24.0263 10.5394 23.0906 10.5415 22.0001 10.5415C20.9096 10.5415 19.9739 10.5394 19.2157 10.4346C18.4114 10.3235 17.6606 10.0805 17.0087 9.50213C16.3785 8.94296 16.051 8.24434 15.8327 7.50033C15.6495 6.87618 15.5142 6.1104 15.3677 5.23563C15.2915 5.24471 15.2164 5.25422 15.1424 5.26417ZM18.1286 5.06817C18.2542 5.80382 18.353 6.32245 18.4714 6.72591C18.6117 7.20412 18.7365 7.3587 18.8338 7.44506C18.9409 7.54007 19.1077 7.64356 19.5922 7.71052C20.1227 7.78384 20.8468 7.79152 22.0001 7.79152C23.1534 7.79152 23.8776 7.78384 24.4081 7.71052C24.8926 7.64356 25.0593 7.54007 25.1664 7.44506C25.2637 7.3587 25.3885 7.20412 25.5288 6.72591C25.6472 6.32245 25.7461 5.80382 25.8716 5.06817C24.7658 5.0422 23.4898 5.04151 22 5.04151C20.5103 5.04151 19.2343 5.0422 18.1286 5.06817Z" fill="white"/>
</svg>
