<svg width="35" height="35" viewBox="0 0 35 35" fill="none" xmlns="http://www.w3.org/2000/svg">
<path fill-rule="evenodd" clip-rule="evenodd" d="M8.4954 10.8276C8.4954 5.85465 12.5268 1.82324 17.4998 1.82324C22.4728 1.82324 26.5042 5.85465 26.5042 10.8276C26.5042 13.3267 26.5556 15.2464 26.8662 16.8084C27.342 15.3249 28.4563 13.8533 29.9048 12.363C30.3258 11.9298 31.0183 11.92 31.4515 12.341C31.8846 12.7621 31.8944 13.4545 31.4734 13.8877C29.3913 16.0297 28.6978 17.4938 28.8144 18.5879C28.9263 19.6375 29.8563 20.8751 32.6063 22.3732C33.0722 22.6269 33.2799 23.1702 33.1279 23.658C33.1687 23.7896 33.1851 23.9302 33.173 24.0733C33.1339 24.5397 32.8024 24.9294 32.3484 25.0429C30.749 25.4427 29.9963 25.7925 29.5145 26.2743C29.0327 26.7561 28.6829 27.5088 28.2831 29.1082C28.1614 29.5951 27.7239 29.9367 27.222 29.9367C24.6474 29.9367 23.2248 30.655 22.0227 31.3948C21.8636 31.4927 21.7019 31.5964 21.5363 31.7027C20.4683 32.3878 19.2376 33.1774 17.4998 33.1774C15.762 33.1774 14.5315 32.388 13.4635 31.7028C13.298 31.5966 13.136 31.4927 12.9769 31.3948C11.7748 30.655 10.3521 29.9367 7.77757 29.9367C7.27568 29.9367 6.8382 29.5951 6.71648 29.1082C6.31664 27.5088 5.96689 26.7561 5.48508 26.2743C5.00327 25.7925 4.25054 25.4427 2.65119 25.0429C2.19719 24.9294 1.8657 24.5397 1.82655 24.0733C1.81453 23.9302 1.83087 23.7896 1.87169 23.658C1.71968 23.1702 1.9274 22.6269 2.39324 22.3732C5.14327 20.8751 6.07326 19.6375 6.18515 18.5879C6.30177 17.4938 5.60824 16.0297 3.52617 13.8877C3.10514 13.4545 3.11497 12.7621 3.54813 12.341C3.98129 11.92 4.67374 11.9298 5.09477 12.363C6.54332 13.8533 7.65761 15.3249 8.13342 16.8084C8.444 15.2464 8.4954 13.3267 8.4954 10.8276ZM17.4998 4.01074C13.7349 4.01074 10.6829 7.06277 10.6829 10.8276C10.6829 14.2454 10.6115 17.0721 9.6332 19.3883C8.87918 21.1735 7.62814 22.5792 5.68999 23.7773C6.19682 24.0324 6.64335 24.339 7.03187 24.7275C7.80882 25.5045 8.25809 26.5134 8.62303 27.7726C11.2149 27.9197 12.8278 28.7345 14.1234 29.5318C14.3295 29.6586 14.5203 29.7789 14.6996 29.8919C15.7801 30.5728 16.442 30.9899 17.4998 30.9899C18.5575 30.9899 19.2193 30.5729 20.2998 29.892C20.4791 29.779 20.6701 29.6586 20.8762 29.5318C22.1718 28.7345 23.7847 27.9197 26.3766 27.7726C26.7415 26.5134 27.1908 25.5045 27.9677 24.7275C28.3562 24.339 28.8028 24.0324 29.3096 23.7773C27.3714 22.5792 26.1204 21.1735 25.3664 19.3883C24.3881 17.0721 24.3167 14.2454 24.3167 10.8276C24.3167 7.06277 21.2647 4.01074 17.4998 4.01074Z" fill="#409EDC" fill-opacity="0.941176"/>
</svg>
