<svg width="35" height="35" viewBox="0 0 35 35" fill="none" xmlns="http://www.w3.org/2000/svg">
<path fill-rule="evenodd" clip-rule="evenodd" d="M20.1952 13.3323L20.0759 13.2666C18.8736 12.604 17.8902 12.0621 17.0806 11.7268C16.2588 11.3865 15.4159 11.1695 14.5579 11.3944C14.0704 11.5222 13.6128 11.7489 13.2218 12.0651C12.5038 12.6455 12.25 13.4766 12.1387 14.3141C12.031 15.1242 12.031 16.1721 12.0311 17.4224V17.5783C12.031 18.8286 12.031 19.8765 12.1387 20.6866C12.25 21.5242 12.5038 22.3552 13.2218 22.9357C13.6128 23.2518 14.0704 23.4786 14.5579 23.6064C15.4159 23.8313 16.2588 23.6143 17.0806 23.2739C17.8902 22.9387 18.8736 22.3968 20.0759 21.7342L20.1952 21.6684C21.2953 21.0623 22.204 20.5616 22.8578 20.0977C23.5129 19.6329 24.1345 19.0569 24.3403 18.2169C24.4558 17.7453 24.4558 17.2554 24.3403 16.7839C24.1345 15.9439 23.5129 15.3679 22.8578 14.9031C22.204 14.4391 21.2953 13.9385 20.1952 13.3323ZM15.1125 13.5104C15.2689 13.4694 15.5595 13.4646 16.2437 13.7479C16.927 14.0309 17.8034 14.5119 19.0791 15.2149C20.2548 15.8628 21.0522 16.3041 21.592 16.6871C22.1426 17.0778 22.2049 17.2608 22.2156 17.3043C22.2474 17.434 22.2474 17.5668 22.2156 17.6964C22.2049 17.74 22.1426 17.923 21.592 18.3136C21.0522 18.6966 20.2548 19.138 19.0791 19.7859C17.8034 20.4888 16.927 20.9699 16.2437 21.2529C15.5595 21.5362 15.2689 21.5313 15.1125 21.4903C14.9128 21.438 14.7375 21.3481 14.597 21.2346C14.5304 21.1807 14.3919 21.0362 14.3071 20.3984C14.2209 19.7498 14.2186 18.8492 14.2186 17.5004C14.2186 16.1515 14.2209 15.2509 14.3071 14.6024C14.3919 13.9645 14.5304 13.8201 14.597 13.7662C14.7375 13.6527 14.9128 13.5628 15.1125 13.5104Z" fill="#409EDC" fill-opacity="0.941176"/>
<path fill-rule="evenodd" clip-rule="evenodd" d="M17.4998 4.01074C14.7893 4.01074 12.1853 4.27844 9.76591 4.77161L9.5803 4.80941C6.8173 5.37179 4.97629 5.74651 3.38984 7.78625C1.82041 9.80409 1.82129 12.1442 1.82265 15.7684L1.82265 19.2322C1.82129 22.8565 1.82041 25.1966 3.38984 27.2144C4.97629 29.2541 6.81729 29.6289 9.58029 30.1912L9.76591 30.229C12.1853 30.7222 14.7893 30.9899 17.4998 30.9899C20.2103 30.9899 22.8144 30.7222 25.2337 30.229L25.4193 30.1912C28.1823 29.6289 30.0233 29.2541 31.6098 27.2144C33.1792 25.1966 33.1783 22.8565 33.177 19.2323V15.7684C33.1783 12.1442 33.1792 9.80409 31.6098 7.78625C30.0233 5.74651 28.1823 5.37179 25.4193 4.80941L25.2337 4.77161C22.8144 4.27844 20.2103 4.01074 17.4998 4.01074ZM10.2028 6.91503C12.4745 6.45197 14.932 6.19824 17.4998 6.19824C20.0676 6.19824 22.5252 6.45197 24.7968 6.91503C27.7894 7.52506 28.8314 7.77703 29.8831 9.12924C30.9404 10.4887 30.9894 12.015 30.9894 16.0952V18.9055C30.9894 22.9856 30.9404 24.512 29.8831 25.8714C28.8314 27.2236 27.7894 27.4756 24.7968 28.0856C22.5252 28.5487 20.0676 28.8024 17.4998 28.8024C14.932 28.8024 12.4745 28.5487 10.2028 28.0856C7.2102 27.4756 6.16826 27.2236 5.11655 25.8714C4.05922 24.512 4.01023 22.9856 4.01023 18.9055V16.0952C4.01023 12.015 4.05922 10.4887 5.11655 9.12924C6.16826 7.77703 7.2102 7.52506 10.2028 6.91503Z" fill="#409EDC" fill-opacity="0.941176"/>
</svg>
