<svg width="38" height="38" viewBox="0 0 38 38" fill="none" xmlns="http://www.w3.org/2000/svg">
<path d="M20.3261 9.82979C20.3261 9.0704 19.7105 8.45479 18.9511 8.45479C18.1917 8.45479 17.5761 9.0704 17.5761 9.82979V10.5684C14.8047 11.0949 13.3503 12.8503 12.9386 14.1381C12.6341 15.0054 12.4858 16.3745 13.1844 17.6387C13.938 19.0024 15.4559 19.8611 17.7197 20.0215C20.2363 20.1998 21.6552 20.4307 22.4311 20.8381C22.7556 21.0084 22.8894 21.1727 22.965 21.3343C23.0538 21.5237 23.1306 21.8592 23.0796 22.4718C22.9952 23.4846 22.5409 23.9998 21.94 24.3224C21.2533 24.691 20.3024 24.8305 19.3391 24.7994C18.4035 24.7694 17.1837 24.5339 16.231 24.0535C15.2742 23.571 14.8557 23.0004 14.823 22.3639C14.784 21.6055 14.1377 21.0223 13.3793 21.0613C12.6209 21.1003 12.0377 21.7466 12.0766 22.505C12.1814 24.5437 13.6027 25.808 14.9928 26.5089C15.8145 26.9233 16.7196 27.1964 17.5761 27.359V28.1631C17.5761 28.9225 18.1917 29.5381 18.9511 29.5381C19.7105 29.5381 20.3261 28.9225 20.3261 28.1631V27.5278C21.2812 27.459 22.3162 27.2415 23.2405 26.7454C24.6133 26.0085 25.654 24.695 25.8201 22.7001C25.8943 21.8089 25.8189 20.9439 25.4554 20.1678C25.0788 19.3638 24.4602 18.7974 23.7094 18.4032C22.3349 17.6816 20.3121 17.4483 17.9141 17.2783C16.2463 17.1602 15.7537 16.6023 15.5914 16.3087C15.3819 15.9295 15.4011 15.4166 15.5366 15.0399L15.5473 15.01L15.5567 14.9797C15.6531 14.667 16.4519 13.272 18.9936 13.1691L19.0172 13.1681C19.1075 13.1648 19.2 13.1631 19.2947 13.1631C21.4073 13.1631 22.5013 14.8235 22.6051 15.6225C22.703 16.3756 23.3928 16.9067 24.1459 16.8089C24.8989 16.711 25.4301 16.0212 25.3322 15.2681C25.0981 13.4665 23.3528 10.9648 20.3261 10.4919V9.82979Z" fill="white"/>
<path fill-rule="evenodd" clip-rule="evenodd" d="M19.0457 0.208374H18.9562C16.1816 0.208364 13.212 0.208353 10.6095 0.491043C8.05811 0.768171 5.533 1.34277 3.90379 2.73403C3.42987 3.13873 3.08927 3.48784 2.73403 3.90378C1.38918 5.4784 0.783719 7.3947 0.492882 9.78897C0.208279 12.1319 0.208294 15.1084 0.208313 18.9061V19.094C0.208294 22.8916 0.208279 25.8681 0.492882 28.2111C0.783719 30.6053 1.38917 32.5217 2.73405 34.0963C3.13227 34.5625 3.48712 34.9102 3.90376 35.266C5.53296 36.6574 8.05811 37.232 10.6095 37.5091C13.2115 37.7917 16.1804 37.7917 18.9544 37.7917H19.0458C21.8197 37.7917 24.7886 37.7917 27.3905 37.5091C29.9419 37.232 32.467 36.6574 34.0962 35.2659C34.5723 34.8593 34.8551 34.5772 35.2658 34.0963C36.6108 32.5217 37.2162 30.6054 37.5071 28.2111C37.7917 25.8681 37.7917 22.8916 37.7916 19.094V18.9061C37.7917 15.1084 37.7917 12.1319 37.5071 9.78897C37.2162 7.39469 36.6107 5.47839 35.2659 3.90376C34.8733 3.44418 34.5963 3.16122 34.0962 2.73411C32.467 1.34263 29.9418 0.768043 27.3905 0.490949C24.7885 0.208361 21.8197 0.208368 19.0457 0.208374ZM5.68962 4.82528C6.63202 4.02051 8.40222 3.49697 10.9064 3.22496C13.3458 2.96 16.1744 2.95837 19 2.95837C21.8255 2.95838 24.6542 2.95995 27.0936 3.22487C29.5978 3.49685 31.3679 4.0204 32.3102 4.8252C32.6951 5.154 32.8709 5.33399 33.1748 5.68977C34.0262 6.68665 34.5189 7.99473 34.7771 10.1206C35.0393 12.2785 35.0416 15.0881 35.0416 19C35.0416 22.912 35.0393 25.7216 34.7771 27.8795C34.5189 30.0053 34.0262 31.3134 33.1748 32.3102C32.8581 32.6809 32.6774 32.8612 32.3102 33.1748C31.3679 33.9797 29.5978 34.5032 27.0936 34.7752C24.6542 35.0401 21.8255 35.0417 19 35.0417C16.1744 35.0417 13.3457 35.0401 10.9064 34.7752C8.40216 34.5032 6.63197 33.9796 5.68965 33.1748C5.37597 32.9069 5.1243 32.6605 4.82514 32.3102C3.97373 31.3134 3.48105 30.0053 3.22281 27.8795C2.96069 25.7216 2.95831 22.912 2.95831 19C2.95831 15.0881 2.96069 12.2785 3.22281 10.1206C3.48105 7.99473 3.97375 6.68662 4.82517 5.68974C5.09367 5.37535 5.33309 5.12973 5.68962 4.82528Z" fill="white"/>
</svg>
