<svg width="44" height="44" viewBox="0 0 44 44" fill="none" xmlns="http://www.w3.org/2000/svg">
<path d="M31.1671 16.5C31.1671 15.4874 31.9879 14.6666 33.0004 14.6666H33.0169C34.0294 14.6666 34.8502 15.4874 34.8502 16.5C34.8502 17.5125 34.0294 18.3333 33.0169 18.3333H33.0004C31.9879 18.3333 31.1671 17.5125 31.1671 16.5Z" fill="white"/>
<path fill-rule="evenodd" clip-rule="evenodd" d="M33.0958 2.29163H32.9051C31.2579 2.29158 29.8843 2.29153 28.7939 2.43814C27.643 2.59288 26.6038 2.93327 25.7688 3.7683C24.9338 4.60333 24.5934 5.64246 24.4386 6.79342C24.292 7.88385 24.2921 9.25742 24.2921 10.9046V14.762C24.2921 16.4092 24.292 17.7827 24.4386 18.8732C24.5934 20.0241 24.9338 21.0633 25.7688 21.8983C26.6038 22.7333 27.6429 23.0737 28.7939 23.2285C29.8843 23.3751 31.2579 23.375 32.9051 23.375H33.0958C34.743 23.375 36.1166 23.3751 37.207 23.2285C38.358 23.0737 39.3971 22.7333 40.2321 21.8983C41.0671 21.0633 41.4075 20.0241 41.5623 18.8732C41.7089 17.7828 41.7088 16.4094 41.7088 14.7623V10.9046C41.7088 9.2575 41.7089 7.88382 41.5623 6.79342C41.4075 5.64246 41.0671 4.60333 40.2321 3.7683C39.3971 2.93327 38.358 2.59288 37.207 2.43814C36.1166 2.29153 34.743 2.29158 33.0958 2.29163ZM27.7133 5.71285C27.9522 5.47393 28.3143 5.27736 29.1603 5.16361C30.0459 5.04455 31.2331 5.04163 33.0005 5.04163C34.7678 5.04163 35.955 5.04455 36.8406 5.16361C37.6866 5.27736 38.0487 5.47393 38.2876 5.71285C38.5265 5.95176 38.7231 6.31384 38.8368 7.15985C38.9559 8.04542 38.9588 9.23261 38.9588 11V14.6666C38.9588 16.434 38.9559 17.6212 38.8368 18.5067C38.7231 19.3528 38.5265 19.7148 38.2876 19.9538C38.0487 20.1927 37.6866 20.3892 36.8406 20.503C35.955 20.622 34.7678 20.625 33.0005 20.625C31.2331 20.625 30.0459 20.622 29.1603 20.503C28.3143 20.3892 27.9522 20.1927 27.7133 19.9538C27.4744 19.7148 27.2778 19.3528 27.1641 18.5067C27.045 17.6212 27.0421 16.434 27.0421 14.6666V11C27.0421 9.23261 27.045 8.04542 27.1641 7.15985C27.2778 6.31384 27.4744 5.95176 27.7133 5.71285Z" fill="white"/>
<path fill-rule="evenodd" clip-rule="evenodd" d="M20.1671 4.12497L14.5718 4.12496C12.9246 4.12491 11.551 4.12486 10.4606 4.27147C9.30962 4.42621 8.27048 4.76661 7.43545 5.60164C6.60043 6.43666 6.26003 7.4758 6.10529 8.62675C5.95868 9.71719 5.95873 11.0908 5.95878 12.738L5.95878 27.2365L5.1965 28.7196C3.86917 31.1691 2.97535 33.1197 2.56196 34.7392C2.13656 36.4057 2.1867 37.8574 2.90949 39.1702C3.71752 40.6378 5.16122 41.21 6.78058 41.4635C8.34559 41.7084 10.4326 41.7084 12.9928 41.7083H31.0077C33.5679 41.7084 35.6549 41.7084 37.2199 41.4635C38.8393 41.21 40.283 40.6378 41.091 39.1702C41.8138 37.8573 41.8639 36.4056 41.4384 34.7391C41.0242 33.1168 40.1279 31.162 38.7966 28.7063L38.0421 27.3146V26.5833C38.0421 25.8239 37.4265 25.2083 36.6671 25.2083C36.0684 25.2083 35.5591 25.5909 35.3704 26.125H8.70879V12.8333C8.70879 11.0659 8.7117 9.87875 8.83077 8.99318C8.94451 8.14717 9.14108 7.78509 9.38 7.54618C9.61891 7.30727 9.98099 7.11069 10.827 6.99695C11.7126 6.87789 12.8998 6.87497 14.6671 6.87497H20.1671C20.9265 6.87497 21.5421 6.25936 21.5421 5.49997C21.5421 4.74057 20.9265 4.12497 20.1671 4.12497ZM7.63547 29.9902L8.20865 28.875H35.7599L36.379 30.0169C37.6929 32.4406 38.4487 34.1455 38.7739 35.4194C39.0879 36.6492 38.9647 37.3304 38.682 37.8439C38.4845 38.2025 38.0926 38.5434 36.7947 38.7465C35.4677 38.9542 33.5981 38.9583 30.8835 38.9583H13.117C10.4024 38.9583 8.53277 38.9542 7.2058 38.7465C5.90793 38.5434 5.51596 38.2025 5.31851 37.8439C5.03582 37.3304 4.9126 36.6491 5.22652 35.4193C5.5517 34.1454 6.30739 32.4406 7.62133 30.0169L7.63547 29.9902Z" fill="white"/>
</svg>
