<svg width="91" height="65" viewBox="0 0 91 65" fill="none" xmlns="http://www.w3.org/2000/svg">
<path d="M85.4131 44.6881C85.3558 43.3998 85.1697 41.6391 84.8548 39.4061C84.5685 37.1445 84.1534 34.4963 83.6095 31.4617C83.3232 29.8871 83.0083 28.1694 82.6647 26.3086C82.3212 24.4477 81.992 22.5726 81.6771 20.6831C81.3621 18.7936 81.0759 16.9328 80.8182 15.1005C80.5892 13.2683 80.4317 11.5792 80.3458 10.0333C80.3458 9.86152 80.4174 9.4464 80.5605 8.78795C80.7323 8.12949 80.9184 7.44241 81.1188 6.7267C81.3478 6.01099 81.7057 5.08056 82.1924 3.93542C82.4786 4.99467 82.6934 6.29727 82.8365 7.84321C83.2087 11.6222 83.6381 15.1148 84.1248 18.3212C84.6115 21.499 85.0552 24.3905 85.456 26.9957C85.6278 28.1122 85.7996 29.3289 85.9713 30.6458C86.1717 31.9627 86.3435 33.2939 86.4866 34.6395C86.6298 35.9564 86.7443 37.2304 86.8302 38.4614C86.9447 39.6924 87.002 40.7946 87.002 41.768C87.002 42.1974 86.959 42.7127 86.8731 43.3139C86.8159 43.8865 86.73 44.4591 86.6155 45.0316C86.5296 45.5756 86.4008 46.0479 86.229 46.4487C86.0858 46.8209 85.9284 47.007 85.7566 47.007C85.5848 47.007 85.4846 46.8209 85.456 46.4487C85.4274 46.0479 85.4131 45.6615 85.4131 45.2893V44.6881Z" fill="#3498DB"/>
<path d="M85.9714 49.3259C86.3722 49.3259 86.6871 49.5263 86.9162 49.9271C87.1452 50.3279 87.2597 50.7287 87.2597 51.1295C87.2597 51.7307 87.1309 52.2603 86.8732 52.7184C86.6156 53.1764 86.3865 53.4055 86.1861 53.4055C85.9571 53.4055 85.7424 53.248 85.542 52.9331C85.4561 52.7327 85.2987 52.6039 85.0696 52.5466C84.8406 52.4893 84.6116 52.4607 84.3825 52.4607C84.1535 52.4607 83.8529 52.5323 83.4807 52.6754C83.1372 52.8472 82.7937 53.0333 82.4501 53.2337C82.1352 53.4627 81.8632 53.7061 81.6342 53.9637C81.4052 54.2214 81.2907 54.4504 81.2907 54.6508C81.2907 54.9657 81.5197 55.2234 81.9777 55.4238C82.4358 55.6242 82.9511 55.7816 83.5237 55.8961C84.1249 56.0107 84.6831 56.0965 85.1985 56.1538C85.7424 56.2111 86.1003 56.2397 86.272 56.2397C87.2168 55.753 87.9325 55.3665 88.4192 55.0802C88.9345 54.7939 89.6788 54.4075 90.6522 53.9208C90.8526 53.9208 90.9528 54.0639 90.9528 54.3502C90.4375 55.6957 90.008 56.6691 89.6645 57.2703C89.0633 57.6997 88.5623 58.0146 88.1615 58.215C87.7607 58.4441 87.317 58.6874 86.8303 58.9451C86.3436 59.2027 85.8569 59.4604 85.3702 59.718C84.7977 60.033 84.2108 60.3622 83.6096 60.7057C83.0084 61.0493 82.4501 61.3642 81.9348 61.6505C81.4195 61.9654 80.761 62.3232 79.9594 62.724C79.8163 62.724 79.7447 62.5809 79.7447 62.2946C79.7447 62.0083 79.8736 61.7077 80.1312 61.3928C80.3889 61.1065 80.6752 60.8202 80.9901 60.534C81.305 60.2477 81.7201 59.8469 82.2354 59.3316C81.577 59.0453 81.0473 58.7876 80.6465 58.5586C80.2744 58.3296 79.9165 58.0433 79.573 57.6997C79.258 57.3562 79.1006 56.9697 79.1006 56.5403C79.1006 55.9105 79.3296 55.1804 79.7877 54.3502C80.2457 53.52 80.8183 52.7327 81.5054 51.9883C82.1925 51.244 82.9368 50.6142 83.7384 50.0989C84.54 49.5836 85.2843 49.3259 85.9714 49.3259Z" fill="#3498DB"/>
<path d="M59.1322 37.216C58.6169 37.0156 57.9727 36.7723 57.1998 36.486C56.4554 36.1711 55.6538 35.8848 54.795 35.6272C53.9648 35.3409 53.1345 35.1119 52.3043 34.9401C51.4741 34.7397 50.7441 34.6395 50.1142 34.6395C49.0263 34.6395 48.0816 34.6681 47.28 34.7254C46.507 34.7826 45.8486 34.8542 45.3046 34.9401C44.7607 35.026 44.3313 35.0975 44.0164 35.1548C43.7014 35.2121 43.4581 35.2407 43.2863 35.2407C43.0859 35.2407 42.9428 35.1405 42.8569 34.9401C43.0859 34.3103 43.272 33.8236 43.4152 33.48C43.5869 33.1365 43.7587 32.7786 43.9305 32.4065C44.1022 32.0343 44.2597 31.7194 44.4028 31.4617C44.546 31.2041 44.8466 30.975 45.3046 30.7746C46.4784 30.2307 47.7381 29.7011 49.0836 29.1858C50.4578 28.6418 51.7747 28.0836 53.0343 27.511C54.3226 26.9384 55.4964 26.3229 56.5556 25.6644C57.6435 25.006 58.5024 24.2617 59.1322 23.4314C59.9338 22.3722 60.6781 21.3272 61.3652 20.2966C62.0809 19.2374 62.7394 18.2926 63.3406 17.4624C63.9418 16.6035 64.4857 15.9164 64.9724 15.4011C65.4591 14.8572 65.8742 14.5852 66.2178 14.5852C66.4754 14.5852 66.7188 14.757 66.9478 15.1005C67.1768 15.4441 67.3772 15.8735 67.549 16.3888C67.7208 16.8755 67.8496 17.3765 67.9355 17.8918C68.05 18.4071 68.1072 18.8366 68.1072 19.1801C68.1072 19.5236 68.0643 19.9674 67.9784 20.5113C67.9212 21.0553 67.8353 21.5992 67.7208 22.1431C67.6062 22.6871 67.4774 23.1595 67.3343 23.5603C67.1911 23.9324 67.048 24.1185 66.9048 24.1185C66.7331 24.1185 66.5756 23.8609 66.4325 23.3455C66.2893 22.8302 66.1319 22.2577 65.9601 21.6278C65.7883 20.998 65.5879 20.4254 65.3589 19.9101C65.1299 19.3948 64.8436 19.1372 64.5 19.1372C64.2996 19.1372 63.9275 19.4807 63.3835 20.1678C62.8396 20.8549 62.2384 21.6565 61.5799 22.5726C60.9501 23.4601 60.3203 24.3619 59.6905 25.278C59.0893 26.1654 58.6026 26.8239 58.2304 27.2533C57.7724 27.7686 57.0996 28.2983 56.2121 28.8422C55.3532 29.3862 54.3512 29.9158 53.2061 30.4311C53.8359 30.6029 54.4944 30.8176 55.1815 31.0752C55.8686 31.3043 56.5413 31.5476 57.1998 31.8053C57.8869 32.0343 58.5453 32.2776 59.1751 32.5353C59.805 32.7643 60.3775 32.9647 60.8929 33.1365C61.809 33.4514 62.8253 33.7377 63.9418 33.9953C65.0869 34.2244 66.2607 34.4248 67.4631 34.5965C68.6655 34.7683 69.8536 34.9115 71.0273 35.026C72.2297 35.1119 73.3463 35.1548 74.3769 35.1548L74.8063 35.2836C74.6059 35.8276 74.4341 36.257 74.291 36.5719C74.1479 36.8868 73.9904 37.216 73.8186 37.5596C73.6755 37.9031 73.5467 38.218 73.4321 38.5043C73.289 38.8192 73.1745 39.0053 73.0886 39.0626C73.0313 39.1198 72.9168 39.1485 72.7451 39.1485C71.6858 39.0912 70.8699 39.0483 70.2973 39.0196C69.7247 38.9624 69.1522 38.9194 68.5796 38.8908C68.0357 38.8622 67.6349 38.8479 67.3772 38.8479C66.4897 38.8479 65.4305 38.991 64.1994 39.2773C62.9971 39.5636 61.7517 40.0932 60.4634 40.8662C56.9994 43.0133 53.6498 44.5593 50.4148 45.504C47.1798 46.4201 44.002 46.8782 40.8815 46.8782C40.2517 46.8782 39.7507 46.6921 39.3785 46.3199C38.9777 45.9191 38.7773 45.4038 38.7773 44.774C38.7773 43.9437 39.1352 43.2853 39.8509 42.7986C40.5666 42.2833 41.3969 42.0113 42.3416 41.9827C44.4887 41.9254 46.5786 41.7107 48.6112 41.3386C50.6725 40.9664 52.562 40.3795 54.2797 39.5779C54.9668 39.263 55.7684 38.8908 56.6845 38.4614C57.6006 38.0033 58.4165 37.5882 59.1322 37.216ZM64.5 1.61651L68.8373 4.57956L66.6472 9.08855L62.3529 6.1255L64.5 1.61651ZM53.5067 51.3442L57.8439 54.3073L55.6538 58.8162L51.3596 55.8532L53.5067 51.3442Z" fill="#3498DB"/>
<path d="M40.8385 46.8782C40.6095 46.8782 40.2946 46.8638 39.8938 46.8352C39.5216 46.8066 39.1208 46.735 38.6914 46.6205C38.262 46.506 37.8325 46.3629 37.4031 46.1911C36.9737 45.9907 36.6015 45.733 36.2866 45.4181C35.714 44.8455 35.256 44.1441 34.9124 43.3139C34.5689 42.4551 34.2969 41.5676 34.0965 40.6515C33.9534 39.993 33.8389 39.1914 33.753 38.2467C33.6957 37.3019 33.6385 36.4574 33.5812 35.7131C33.4953 34.1671 33.3808 32.5067 33.2377 30.7317C33.0945 28.9281 32.9371 27.0816 32.7653 25.1921C32.5935 23.274 32.4074 21.3272 32.207 19.3519C32.0066 17.3765 31.8062 15.4298 31.6058 13.5117C31.4913 12.5955 31.3768 11.7081 31.2623 10.8492C31.1478 9.96172 31.0189 9.07423 30.8758 8.18675C30.8185 7.84321 30.7183 7.39947 30.5752 6.85553C30.4607 6.31158 30.3319 5.81059 30.1887 5.35253C30.246 4.86585 30.3319 4.35053 30.4464 3.80659C30.5895 3.23402 30.7327 2.70439 30.8758 2.21771C31.0189 1.73103 31.2623 1.15846 31.6058 0.5C31.8062 0.843542 31.9637 1.17277 32.0782 1.48768C32.1927 1.8026 32.2929 2.16045 32.3788 2.56125C32.6078 3.76365 32.7796 4.95173 32.8941 6.1255C33.0373 7.29927 33.1661 8.57324 33.2806 9.9474C33.4237 11.8655 33.5955 13.984 33.7959 16.3029C33.9963 18.5932 34.211 20.8978 34.4401 23.2167C34.6691 25.5356 34.8981 27.783 35.1271 29.9587C35.3562 32.1059 35.5709 33.9953 35.7713 35.6272C35.8285 36.028 35.9144 36.4717 36.0289 36.9584C36.1434 37.4451 36.2723 37.9318 36.4154 38.4184C36.5872 38.8765 36.7733 39.3059 36.9737 39.7067C37.2027 40.1075 37.446 40.4368 37.7037 40.6944C38.0186 41.0093 38.3908 41.2527 38.8202 41.4244C39.2783 41.5962 39.722 41.725 40.1514 41.8109C40.6095 41.8968 41.0246 41.9541 41.3968 41.9827C41.7976 41.9827 42.0982 41.9827 42.2986 41.9827L40.8385 46.8782Z" fill="#3498DB"/>
<path d="M21.4714 32.6212C22.5593 33.8522 23.3752 34.9687 23.9191 35.9707C24.463 36.9441 24.9497 38.0606 25.3792 39.3202C25.8086 40.5513 26.0233 41.7823 26.0233 43.0133V45.0316C26.0233 45.3752 26.009 45.6328 25.9804 45.8046C25.9231 48.0662 25.6225 50.1418 25.0786 52.0313C24.5632 53.9208 23.8046 55.7387 22.8026 57.485C22.2873 58.4011 21.6288 59.3029 20.8272 60.1904C20.0543 61.0779 19.224 61.8795 18.3366 62.5952C17.4777 63.3109 16.5902 63.8835 15.6741 64.3129C14.7866 64.771 13.9707 65 13.2264 65C11.7091 64.7423 10.4637 64.5133 9.49035 64.3129C8.51698 64.1125 7.47204 63.8835 6.35553 63.6258C5.23901 63.3968 4.20839 63.1535 3.26365 62.8958C2.31891 62.6668 1.23103 62.2946 0 61.7793L0.644141 61.6075C2.07557 61.6075 3.44973 61.5789 4.76664 61.5216C6.11218 61.4644 7.40047 61.3212 8.63149 61.0922C9.89115 60.8918 11.1079 60.5912 12.2816 60.1904C13.4554 59.7896 14.5862 59.2457 15.6741 58.5586C18.3366 56.8981 20.3549 55.0945 21.729 53.1478C23.1032 51.2011 23.9907 49.1828 24.3915 47.0929C23.9907 45.6901 23.5326 44.4734 23.0173 43.4427C22.502 42.3835 22.0153 41.496 21.5573 40.7803C21.0992 40.0646 20.5553 39.2916 19.9254 38.4614C19.9254 38.261 19.9827 37.8459 20.0972 37.216C20.2117 36.5862 20.3549 35.9278 20.5266 35.2407C20.6984 34.5536 21.0133 33.6804 21.4714 32.6212ZM16.7477 20.1678L21.0849 23.1308L18.8948 27.6398L14.6005 24.6768L16.7477 20.1678Z" fill="#3498DB"/>
</svg>
