<svg width="1512" height="731" viewBox="0 0 1512 731" fill="none" xmlns="http://www.w3.org/2000/svg">
<path fill-rule="evenodd" clip-rule="evenodd" d="M0 26.3862V365.497H1512V34.5301L1421.44 23.4544L1411.2 17.9166L1362.38 21.8257L1314.73 27.3635L1299.38 32.9013L1255.27 20.1968L1222.2 21.8257L1133.21 8.46963L1093.44 23.1287L1067.46 17.5908L1037.14 22.1514L990.281 17.5908H945L897.947 22.3143L876.094 32.9013L864.675 37.4619L844.2 41.0452L800.888 42.0225L755.213 34.2044L660.811 33.2271L613.856 28.3408L592.2 38.4392L563.85 33.2271L472.11 38.4392L431.55 36.4846L413.83 29.318L421.71 11.4015L385.88 11.7272L364.02 7.98102L333.11 8.79543L309.88 3.5833H290.98L275.23 5.53787L254.36 11.0757H247.28L232.31 0L220.5 5.53787L198.06 1.95453L189.39 6.18938L179.16 1.95453L163.8 11.0757L148.54 8.06243L136.24 8.79543L123.24 16.2878L103.56 19.8711L52.37 26.0604L27.5601 23.4544L0 26.3862ZM1512 704.614V365.503H0V696.47L90.5601 707.546L100.8 713.084L149.62 709.175L197.27 703.637L212.62 698.099L256.72 710.804L289.8 709.175L378.79 722.531L418.56 707.872L444.54 713.41L474.86 708.849L521.719 713.41H567L614.053 708.686L635.906 698.099L647.325 693.538L667.8 689.955L711.112 688.978L756.787 696.796L851.189 697.773L898.144 702.659L919.8 692.561L948.15 697.773L1039.89 692.561L1080.45 694.515L1098.17 701.682L1090.29 719.599L1126.12 719.273L1147.98 723.019L1178.89 722.205L1202.12 727.417H1221.02L1236.77 725.463L1257.64 719.925H1264.73L1279.69 731L1291.5 725.463L1313.94 729.046L1322.61 724.811L1332.84 729.046L1348.2 719.925L1363.46 722.938L1375.76 722.205L1388.76 714.713L1408.44 711.13L1459.63 704.94L1484.44 707.546L1512 704.614Z" fill="#F5F5F5"/>
</svg>
