<svg width="28" height="27" viewBox="0 0 28 27" fill="none" xmlns="http://www.w3.org/2000/svg">
<g clip-path="url(#clip0_64_4723)">
<path d="M16.0098 13.3357L2.61841 26.2307C1.99131 25.8021 1.61899 25.0892 1.62557 24.3297V2.34166C1.61899 1.58215 1.99131 0.869299 2.61841 0.440735L16.0098 13.3357Z" fill="#2196F3"/>
<path d="M20.6956 8.83152L16.0098 13.3357L2.61841 0.440709C2.66886 0.401604 2.72142 0.365224 2.77579 0.331738C3.48354 -0.0972244 4.36757 -0.111073 5.08843 0.295414L20.6956 8.83152Z" fill="#4CAF50"/>
<path d="M26.3743 13.3357C26.383 14.1931 25.9171 14.9851 25.1635 15.3941L20.6957 17.8399L16.0099 13.3357L20.6957 8.83154L25.1635 11.2773C25.9171 11.6863 26.383 12.4783 26.3743 13.3357Z" fill="#FFC107"/>
<path d="M20.6956 17.8399L5.08843 26.376C4.36598 26.7761 3.4853 26.7623 2.77579 26.3396C2.72142 26.3061 2.66886 26.2698 2.61841 26.2307L16.0098 13.3357L20.6956 17.8399Z" fill="#F44336"/>
</g>
<defs>
<clipPath id="clip0_64_4723">
<rect width="26.6667" height="26.6666" fill="white" transform="translate(0.666626)"/>
</clipPath>
</defs>
</svg>
