<svg width="25" height="33" viewBox="0 0 25 33" fill="none" xmlns="http://www.w3.org/2000/svg">
<path d="M20.4865 17.323C20.4526 13.2547 23.5686 11.2754 23.7111 11.1833C21.9464 8.40251 19.2111 8.02257 18.25 7.99227C15.9527 7.73098 13.7243 9.47796 12.5541 9.47796C11.3605 9.47796 9.5584 8.01752 7.61617 8.06043C5.11685 8.10209 2.7787 9.66604 1.49634 12.0946C-1.15013 17.0465 0.823628 24.3235 3.35915 28.3262C4.6275 30.2877 6.10957 32.4753 8.04946 32.3983C9.94731 32.3149 10.6562 31.0918 12.9465 31.0918C15.2157 31.0918 15.8814 32.3983 17.8599 32.349C19.8967 32.315 21.1791 30.3799 22.403 28.4019C23.8688 26.1563 24.4574 23.9423 24.4807 23.8287C24.434 23.811 20.5262 22.1979 20.4865 17.323ZM16.7492 5.35918C17.7699 3.97951 18.4684 2.10252 18.2745 0.197754C16.7971 0.268441 14.9495 1.30224 13.8855 2.65161C12.9442 3.84067 12.1033 5.78961 12.3205 7.62243C13.9801 7.75623 15.6841 6.71738 16.7492 5.35918Z" fill="white"/>
</svg>
