<svg width="146" height="104" viewBox="0 0 146 104" fill="none" xmlns="http://www.w3.org/2000/svg">
<path d="M137.112 70.9065C137.02 68.8392 136.722 66.014 136.216 62.4308C135.757 58.8016 135.091 54.5523 134.218 49.6828C133.759 47.1561 133.253 44.3998 132.702 41.4138C132.151 38.4278 131.622 35.4188 131.117 32.3868C130.612 29.3549 130.152 26.3689 129.739 23.4288C129.371 20.4887 129.119 17.7783 128.981 15.2976C128.981 15.022 129.096 14.3559 129.325 13.2993C129.601 12.2427 129.9 11.1402 130.221 9.99169C130.589 8.84322 131.163 7.35021 131.944 5.51266C132.403 7.2124 132.748 9.30261 132.978 11.7833C133.575 17.8472 134.264 23.4517 135.045 28.5969C135.826 33.6961 136.538 38.3359 137.181 42.5163C137.457 44.3079 137.732 46.2603 138.008 48.3735C138.329 50.4867 138.605 52.6228 138.835 54.782C139.065 56.8952 139.248 58.9394 139.386 60.9148C139.57 62.8902 139.662 64.6588 139.662 66.2207C139.662 66.9098 139.593 67.7367 139.455 68.7014C139.363 69.6202 139.225 70.539 139.042 71.4577C138.904 72.3306 138.697 73.0886 138.421 73.7317C138.192 74.3289 137.939 74.6275 137.663 74.6275C137.388 74.6275 137.227 74.3289 137.181 73.7317C137.135 73.0886 137.112 72.4684 137.112 71.8712V70.9065Z" fill="white"/>
<path d="M138.007 78.3486C138.65 78.3486 139.155 78.6701 139.523 79.3133C139.89 79.9564 140.074 80.5996 140.074 81.2427C140.074 82.2074 139.867 83.0573 139.454 83.7923C139.04 84.5273 138.673 84.8948 138.351 84.8948C137.984 84.8948 137.639 84.6422 137.318 84.1369C137.18 83.8153 136.927 83.6086 136.56 83.5167C136.192 83.4248 135.825 83.3789 135.457 83.3789C135.09 83.3789 134.607 83.4937 134.01 83.7234C133.459 83.999 132.907 84.2976 132.356 84.6192C131.851 84.9867 131.414 85.3772 131.047 85.7906C130.679 86.2041 130.496 86.5716 130.496 86.8932C130.496 87.3985 130.863 87.812 131.598 88.1335C132.333 88.4551 133.16 88.7078 134.079 88.8915C135.044 89.0753 135.939 89.2131 136.766 89.305C137.639 89.3968 138.213 89.4428 138.489 89.4428C140.005 88.6618 141.153 88.0416 141.934 87.5823C142.761 87.1229 143.956 86.5027 145.518 85.7217C145.839 85.7217 146 85.9514 146 86.4108C145.173 88.5699 144.484 90.1319 143.933 91.0966C142.968 91.7857 142.164 92.291 141.521 92.6126C140.878 92.9801 140.166 93.3705 139.385 93.784C138.604 94.1974 137.823 94.6109 137.042 95.0243C136.123 95.5297 135.181 96.058 134.217 96.6092C133.252 97.1605 132.356 97.6658 131.529 98.1252C130.702 98.6305 129.646 99.2048 128.359 99.8479C128.13 99.8479 128.015 99.6182 128.015 99.1588C128.015 98.6994 128.222 98.2171 128.635 97.7118C129.049 97.2524 129.508 96.793 130.013 96.3336C130.519 95.8742 131.185 95.2311 132.012 94.4042C130.955 93.9448 130.105 93.5313 129.462 93.1638C128.865 92.7963 128.291 92.3369 127.739 91.7857C127.234 91.2344 126.981 90.6142 126.981 89.9251C126.981 88.9145 127.349 87.743 128.084 86.4108C128.819 85.0786 129.738 83.8153 130.84 82.6209C131.943 81.4265 133.137 80.4158 134.423 79.5889C135.71 78.762 136.904 78.3486 138.007 78.3486Z" fill="white"/>
<path d="M94.9407 58.9164C94.1138 58.5948 93.0801 58.2043 91.8398 57.7449C90.6454 57.2396 89.3591 56.7802 87.9809 56.3668C86.6487 55.9074 85.3165 55.5399 83.9843 55.2642C82.652 54.9427 81.4806 54.7819 80.4699 54.7819C78.7243 54.7819 77.2083 54.8278 75.922 54.9197C74.6817 55.0116 73.6251 55.1264 72.7522 55.2642C71.8794 55.402 71.1903 55.5169 70.685 55.6088C70.1797 55.7006 69.7892 55.7466 69.5136 55.7466C69.192 55.7466 68.9623 55.5858 68.8245 55.2642C69.192 54.2536 69.4906 53.4726 69.7203 52.9213C69.9959 52.3701 70.2715 51.7958 70.5472 51.1986C70.8228 50.6014 71.0755 50.0961 71.3052 49.6827C71.5349 49.2692 72.0172 48.9017 72.7522 48.5801C74.6357 47.7073 76.657 46.8574 78.8161 46.0305C81.0212 45.1577 83.1344 44.2619 85.1557 43.3431C87.2229 42.4243 89.1064 41.4367 90.8062 40.3801C92.5518 39.3235 93.93 38.1291 94.9407 36.7968C96.2269 35.0971 97.4213 33.4203 98.5239 31.7666C99.6723 30.0668 100.729 28.5508 101.694 27.2186C102.658 25.8405 103.531 24.7379 104.312 23.911C105.093 23.0382 105.759 22.6018 106.31 22.6018C106.724 22.6018 107.114 22.8774 107.482 23.4287C107.849 23.9799 108.171 24.669 108.447 25.4959C108.722 26.2769 108.929 27.0808 109.067 27.9077C109.251 28.7346 109.342 29.4237 109.342 29.9749C109.342 30.5262 109.274 31.2383 109.136 32.1111C109.044 32.9839 108.906 33.8568 108.722 34.7296C108.539 35.6024 108.332 36.3604 108.102 37.0036C107.872 37.6008 107.643 37.8994 107.413 37.8994C107.137 37.8994 106.885 37.4859 106.655 36.659C106.425 35.8321 106.173 34.9134 105.897 33.9027C105.621 32.8921 105.3 31.9733 104.932 31.1464C104.565 30.3195 104.105 29.906 103.554 29.906C103.233 29.906 102.635 30.4573 101.763 31.5598C100.89 32.6624 99.925 33.9486 98.8684 35.4187C97.8578 36.8428 96.8471 38.2899 95.8365 39.7599C94.8717 41.184 94.0908 42.2406 93.4936 42.9297C92.7586 43.7566 91.679 44.6064 90.2549 45.4793C88.8767 46.3521 87.2689 47.202 85.4313 48.0289C86.442 48.3045 87.4986 48.649 88.6011 49.0625C89.7036 49.43 90.7832 49.8205 91.8398 50.2339C92.9423 50.6014 93.9989 50.9919 95.0096 51.4054C96.0202 51.7729 96.939 52.0945 97.7659 52.3701C99.2359 52.8754 100.867 53.3348 102.658 53.7482C104.496 54.1158 106.379 54.4373 108.309 54.713C110.238 54.9886 112.145 55.2183 114.028 55.402C115.958 55.5399 117.749 55.6088 119.403 55.6088L120.092 55.8155C119.771 56.6883 119.495 57.3774 119.265 57.8827C119.036 58.3881 118.783 58.9164 118.507 59.4676C118.278 60.0189 118.071 60.5242 117.887 60.9836C117.657 61.4889 117.474 61.7875 117.336 61.8794C117.244 61.9713 117.06 62.0172 116.785 62.0172C115.085 61.9253 113.776 61.8564 112.857 61.8105C111.938 61.7186 111.019 61.6497 110.1 61.6038C109.228 61.5578 108.584 61.5349 108.171 61.5349C106.747 61.5349 105.047 61.7646 103.072 62.2239C101.142 62.6833 99.144 63.5332 97.0768 64.7735C91.5182 68.2189 86.1434 70.6996 80.9523 72.2156C75.7612 73.6857 70.662 74.4207 65.6547 74.4207C64.644 74.4207 63.8401 74.1221 63.2429 73.5249C62.5998 72.8817 62.2782 72.0548 62.2782 71.0442C62.2782 69.712 62.8524 68.6554 64.0009 67.8744C65.1494 67.0475 66.4816 66.6111 67.9976 66.5652C71.443 66.4733 74.7965 66.1287 78.0582 65.5315C81.3657 64.9343 84.3977 63.9926 87.154 62.7063C88.2566 62.201 89.5428 61.6038 91.0129 60.9147C92.4829 60.1797 93.7922 59.5136 94.9407 58.9164ZM103.554 1.79152L110.514 6.54618L107 13.7815L100.109 9.02687L103.554 1.79152ZM85.9137 81.5871L92.8734 86.3418L89.3591 93.5771L82.4683 88.8225L85.9137 81.5871Z" fill="white"/>
<path d="M65.5868 74.4208C65.2193 74.4208 64.7139 74.3978 64.0708 74.3519C63.4736 74.3059 62.8304 74.1911 62.1414 74.0073C61.4523 73.8236 60.7632 73.5939 60.0741 73.3182C59.385 72.9967 58.7878 72.5832 58.2825 72.0779C57.3637 71.1591 56.6287 70.0336 56.0775 68.7014C55.5262 67.3232 55.0898 65.8991 54.7682 64.4291C54.5385 63.3725 54.3547 62.0862 54.2169 60.5702C54.1251 59.0543 54.0332 57.6991 53.9413 56.5047C53.8035 54.024 53.6197 51.3595 53.39 48.5113C53.1603 45.6172 52.9077 42.6541 52.632 39.6222C52.3564 36.5443 52.0578 33.4204 51.7362 30.2507C51.4147 27.0809 51.0931 23.9571 50.7715 20.8792C50.5878 19.4091 50.404 17.985 50.2203 16.6069C50.0365 15.1828 49.8298 13.7587 49.6001 12.3346C49.5082 11.7833 49.3474 11.0712 49.1177 10.1984C48.934 9.32557 48.7273 8.52164 48.4976 7.78662C48.5894 7.00566 48.7273 6.17876 48.911 5.30592C49.1407 4.38715 49.3704 3.53728 49.6001 2.75632C49.8298 1.97537 50.2203 1.05659 50.7715 0C51.0931 0.551265 51.3458 1.07956 51.5295 1.58489C51.7133 2.09021 51.8741 2.66445 52.0119 3.30759C52.3794 5.23702 52.655 7.14348 52.8388 9.02696C53.0685 10.9105 53.2752 12.9547 53.4589 15.1598C53.6886 18.2377 53.9643 21.6371 54.2858 25.3582C54.6074 29.0333 54.952 32.7314 55.3195 36.4524C55.687 40.1734 56.0545 43.7796 56.422 47.271C56.7895 50.7164 57.134 53.7483 57.4556 56.3668C57.5475 57.01 57.6853 57.722 57.8691 58.503C58.0528 59.284 58.2595 60.0649 58.4892 60.8459C58.7649 61.5809 59.0635 62.27 59.385 62.9131C59.7526 63.5563 60.143 64.0845 60.5565 64.498C61.0618 65.0033 61.659 65.3938 62.3481 65.6694C63.0831 65.9451 63.7952 66.1518 64.4842 66.2896C65.2193 66.4274 65.8854 66.5193 66.4826 66.5652C67.1257 66.5652 67.6081 66.5652 67.9296 66.5652L65.5868 74.4208Z" fill="white"/>
<path d="M34.5081 51.5432C36.2538 53.5186 37.5631 55.3102 38.4359 56.918C39.3087 58.4799 40.0897 60.2716 40.7788 62.2929C41.4679 64.2682 41.8124 66.2436 41.8124 68.219V71.4576C41.8124 72.0089 41.7894 72.4224 41.7435 72.698C41.6516 76.3272 41.1693 79.6577 40.2964 82.6897C39.4695 85.7216 38.2521 88.6387 36.6443 91.441C35.8174 92.911 34.7608 94.3581 33.4745 95.7822C32.2342 97.2063 30.9019 98.4926 29.4778 99.6411C28.0997 100.79 26.6756 101.708 25.2055 102.397C23.7814 103.132 22.4722 103.5 21.2778 103.5C18.843 103.086 16.8447 102.719 15.2828 102.397C13.7209 102.076 12.0441 101.708 10.2525 101.295C8.46087 100.927 6.80707 100.537 5.29109 100.123C3.77512 99.7559 2.02944 99.1587 0.0540771 98.3318L1.0877 98.0562C3.38464 98.0562 5.5897 98.0102 7.70288 97.9184C9.862 97.8265 11.9292 97.5968 13.9046 97.2293C15.9259 96.9077 17.8783 96.4254 19.7618 95.7822C21.6453 95.1391 23.4599 94.2662 25.2055 93.1637C29.4778 90.4993 32.7165 87.6051 34.9216 84.4813C37.1266 81.3574 38.5508 78.1188 39.1939 74.7652C38.5508 72.5142 37.8157 70.5618 36.9888 68.908C36.1619 67.2083 35.381 65.7842 34.646 64.6357C33.9109 63.4873 33.0381 62.2469 32.0274 60.9147C32.0274 60.5931 32.1193 59.927 32.3031 58.9164C32.4868 57.9057 32.7165 56.8491 32.9922 55.7466C33.2678 54.6441 33.7731 53.2429 34.5081 51.5432ZM26.9282 31.5598L33.888 36.3145L30.3737 43.5499L23.4828 38.7952L26.9282 31.5598Z" fill="white"/>
</svg>
